<?xml version="1.0" encoding="UTF-8"?>
<svg version="1.1" xmlns="http://www.w3.org/2000/svg" width="791" height="207">
<path d="M0 0 C1.32 0 2.64 0 4 0 C8.6642777 11.0112573 12.32474786 22.15622065 15.6875 33.625 C16.62099636 36.80709908 17.5636005 39.98629355 18.51171875 43.1640625 C18.71802414 43.87865631 18.92432953 44.59325012 19.1368866 45.32949829 C20.30831431 49.2527595 21.60123305 52.66437891 24 56 C31.08425198 59.6285193 39.58043703 58.32502517 47.08984375 56.73046875 C49.30995201 55.88147029 50.44901213 54.77464129 52 53 C51.67 52.34 51.34 51.68 51 51 C52.09166436 49.3251177 53.19873637 47.66026877 54.3125 46 C54.92738281 45.071875 55.54226563 44.14375 56.17578125 43.1875 C56.77777344 42.465625 57.37976563 41.74375 58 41 C62.20801906 41 63.84240276 43.40418507 66.6875 46.1875 C74.06372912 53.16799671 80.03065405 58.18024707 90.58984375 57.984375 C105.73481472 57.41257218 118.86022356 56.28610392 132 48 C126.93847152 45.87825954 121.82840632 44.63564083 116.5 43.375 C115.56285156 43.14554688 114.62570312 42.91609375 113.66015625 42.6796875 C112.29697266 42.35484375 112.29697266 42.35484375 110.90625 42.0234375 C110.08447266 41.82669434 109.26269531 41.62995117 108.41601562 41.42724609 C105.86677478 40.97644057 103.58293694 40.8233936 101 41 C99.18523997 42.39585785 99.18523997 42.39585785 98 44 C95.03 43.01 95.03 43.01 92 42 C92 37.44213707 92.76104621 36.44918172 95.375 32.875 C96.00148438 32.00617188 96.62796875 31.13734375 97.2734375 30.2421875 C100.48216629 26.07519582 100.48216629 26.07519582 103.16210938 25.68603516 C110.7597749 25.62378189 117.2704646 27.13960991 124.5 29.375 C135.74454877 32.76906012 146.42770703 35.178072 158.1875 35.625 C159.04408203 35.66367188 159.90066406 35.70234375 160.78320312 35.7421875 C162.85518162 35.83478989 164.9275594 35.91839094 167 36 C166.17632384 40.95072725 164.32260169 44.57956453 162 49 C157.38 49 152.76 49 148 49 C149.31297122 54.98538237 149.31297122 54.98538237 153 57 C162.06992754 58.74293589 175.47583577 60.02960491 184 56 C186.7768875 52.92471889 188.8728098 49.54531701 191 46 C192.20211263 44.03784197 193.41036645 42.07943195 194.625 40.125 C195.15351562 39.24070313 195.68203125 38.35640625 196.2265625 37.4453125 C198.88852884 33.7748479 201.60660469 31.44470063 205.9375 30.0625 C209.91397862 29.98134738 211.71003699 30.76002519 215 33 C220.29004379 38.52321376 221.71302948 44.44156553 222.3125 51.875 C222.11568854 58.12376377 220.41367414 64.46656137 216.8125 69.625 C213.8761506 72.10458394 212.1843402 72.87406904 208.32421875 72.609375 C204.32025976 71.55959752 200.93217952 69.45373985 197.41796875 67.3125 C195.01910198 65.76146974 195.01910198 65.76146974 192 66 C190.65709796 67.62843603 189.65586929 69.36543983 188.57421875 71.17578125 C185.70750875 74.49775041 182.16869454 75.84886783 177.87548828 76.40405273 C174.29123961 76.43608805 170.7093965 76.45784487 167.125 76.4375 C165.88363281 76.45748047 164.64226562 76.47746094 163.36328125 76.49804688 C155.41966438 76.49381705 149.51866645 75.98489186 143.3527832 70.54736328 C141.32290705 68.22551613 140.98490288 65.7902842 140.3125 62.8125 C140.06113281 61.72582031 139.80976562 60.63914063 139.55078125 59.51953125 C139.27814453 58.27236328 139.27814453 58.27236328 139 57 C138.21689453 57.87011719 138.21689453 57.87011719 137.41796875 58.7578125 C128.21652928 68.52326315 116.09918805 75.52493748 102.42749023 76.11010742 C99.40929218 76.17024302 96.39377759 76.18560854 93.375 76.1875 C92.33859375 76.19974609 91.3021875 76.21199219 90.234375 76.22460938 C88.73777344 76.22750977 88.73777344 76.22750977 87.2109375 76.23046875 C85.85427979 76.23663208 85.85427979 76.23663208 84.47021484 76.24291992 C81.86811462 75.98703045 80.23712734 75.3168975 78 74 C77.773125 75.216875 77.54625 76.43375 77.3125 77.6875 C76.25762752 81.967702 74.43240185 84.16826848 71 87 C67.89046621 88.5547669 65.43733239 88.28644437 62 88 C56.62983017 85.5781587 54.88246245 82.44454882 52.76171875 77.21875 C52.05490166 75.15991869 51.48676138 73.12054464 51 71 C49.8553125 71.9590625 49.8553125 71.9590625 48.6875 72.9375 C43.90718925 76.60611058 39.45715609 76.24718314 33.6875 76.3125 C32.84509766 76.34150391 32.00269531 76.37050781 31.13476562 76.40039062 C25.55775432 76.45707643 22.41661889 75.72315586 18 72 C14.51571534 68.27262572 12.10088602 64.64406383 10 60 C9.34 60.70125 8.68 61.4025 8 62.125 C-1.59691655 71.56285164 -15.6222973 79.7183737 -29.3671875 80.05859375 C-33.50140996 79.84849392 -35.55732745 79.32964977 -38.9375 76.8125 C-44.0195732 69.88240019 -43.22956823 63.11515029 -42 55 C-41.02082202 50.23785148 -39.88082964 45.48804866 -38 41 C-35 40 -35 40 -32.8125 40.9375 C-31.9153125 41.4634375 -31.9153125 41.4634375 -31 42 C-31.15597656 42.64066406 -31.31195313 43.28132813 -31.47265625 43.94140625 C-32.69143884 49.35732095 -33.27027142 53.57247667 -32 59 C-30.46113236 60.53886764 -29.08968672 60.31893212 -26.9375 60.4375 C-15.60964883 60.32373392 -4.15890292 54.20867938 5 48 C3.52838817 40.61975576 1.22022275 33.92076146 -1.52148438 26.9296875 C-4.2798102 19.71470361 -5.87323822 14.1494867 -3.125 6.625 C-2.75632812 5.58601563 -2.38765625 4.54703125 -2.0078125 3.4765625 C-1 1 -1 1 0 0 Z M201.75 46.9375 C200.88375 47.9584375 200.88375 47.9584375 200 49 C201.21395953 52.64187858 202.09006077 52.91745993 205.375 54.6875 C206.16648437 55.12449219 206.95796875 55.56148437 207.7734375 56.01171875 C210.0509986 57.20284604 210.0509986 57.20284604 213 57 C212.54936121 52.15563297 211.46006039 49.46006039 208 46 C204.92719876 44.36757434 204.42301556 44.6357366 201.75 46.9375 Z M59 59 C58.63977108 63.59291877 58.42130984 66.94978453 60.6875 71.0625 C62.84867485 73.22096106 62.84867485 73.22096106 65.6875 73.375 C67.95657219 73.23836166 67.95657219 73.23836166 69 72 C69.50241322 69.6704053 69.50241322 69.6704053 69 67 C66.72926391 64.31256494 66.72926391 64.31256494 64 62 C63.443125 61.401875 62.88625 60.80375 62.3125 60.1875 C61.04781729 58.77636223 61.04781729 58.77636223 59 59 Z " fill="#000000" transform="translate(529,60)"/>
<path d="M0 0 C1.32 0 2.64 0 4 0 C8.6642777 11.0112573 12.32474786 22.15622065 15.6875 33.625 C16.62099636 36.80709908 17.5636005 39.98629355 18.51171875 43.1640625 C18.71802414 43.87865631 18.92432953 44.59325012 19.1368866 45.32949829 C20.30783014 49.25113795 21.58340685 52.67728139 24 56 C36.6583133 61.81266946 56.9126571 57.57455541 69.58203125 53 C71.78142033 52.09039805 73.87863165 51.07567073 76 50 C72.77804155 48.79226936 69.54652644 47.6124923 66.3125 46.4375 C65.40048828 46.09525391 64.48847656 45.75300781 63.54882812 45.40039062 C62.66259766 45.08134766 61.77636719 44.76230469 60.86328125 44.43359375 C60.05157471 44.13509521 59.23986816 43.83659668 58.40356445 43.52905273 C55.5966677 42.91122183 53.7436907 43.20782641 51 44 C50.67 44.33 50.34 44.66 50 45 C44.74981482 44.54739783 40.02194623 43.5693582 35 42 C36.05325385 35.88565622 40.88169278 31.57641468 45.6875 28 C56.23004571 24.81734469 64.55442322 28.00156675 74.43603516 31.78881836 C88.67220266 37.2389961 102.82939352 40.59802671 118 42 C116.56501627 45.20888321 114.78256013 47.57806984 112.4375 50.1875 C111.81746094 50.88230469 111.19742188 51.57710937 110.55859375 52.29296875 C109.72141231 53.20988176 108.8779528 54.1220472 108 55 C106.2779331 55.03812694 104.55568616 55.07245286 102.83325195 55.08618164 C93.50464327 55.25494359 87.72529717 57.62319317 80 63 C72.24249432 68.02835911 64.90524582 72.36856676 56 75 C55.4217749 75.1743457 54.8435498 75.34869141 54.24780273 75.52832031 C48.99588303 76.63038492 43.46935786 76.2719715 38.125 76.3125 C36.22427734 76.35600586 36.22427734 76.35600586 34.28515625 76.40039062 C22.73851154 76.47931091 22.73851154 76.47931091 18 72 C14.51571534 68.27262572 12.10088602 64.64406383 10 60 C9.34 60.70125 8.68 61.4025 8 62.125 C-1.59691655 71.56285164 -15.6222973 79.7183737 -29.3671875 80.05859375 C-33.50140996 79.84849392 -35.55732745 79.32964977 -38.9375 76.8125 C-44.0195732 69.88240019 -43.22956823 63.11515029 -42 55 C-41.02082202 50.23785148 -39.88082964 45.48804866 -38 41 C-35 40 -35 40 -32.8125 40.9375 C-31.9153125 41.4634375 -31.9153125 41.4634375 -31 42 C-31.15597656 42.64066406 -31.31195313 43.28132813 -31.47265625 43.94140625 C-32.69143884 49.35732095 -33.27027142 53.57247667 -32 59 C-30.46113236 60.53886764 -29.08968672 60.31893212 -26.9375 60.4375 C-15.60964883 60.32373392 -4.15890292 54.20867938 5 48 C3.52838817 40.61975576 1.22022275 33.92076146 -1.52148438 26.9296875 C-4.2798102 19.71470361 -5.87323822 14.1494867 -3.125 6.625 C-2.75632812 5.58601563 -2.38765625 4.54703125 -2.0078125 3.4765625 C-1 1 -1 1 0 0 Z " fill="#000000" transform="translate(368,60)"/>
<path d="M0 0 C2.52737004 1.91731521 2.9716847 2.91505409 4 6 C4.14328384 7.82962436 4.22040343 9.66501237 4.25 11.5 C4.27578125 12.4590625 4.3015625 13.418125 4.328125 14.40625 C4 17 4 17 2.734375 18.84375 C1 20 1 20 -3 20 C-3.495 19.01 -3.495 19.01 -4 18 C-10.74963623 17.85326878 -13.9962962 21.09968633 -18.75390625 25.6328125 C-21.27638381 28.29128451 -23.20442098 30.8169281 -25 34 C-24.23558594 34.09796875 -23.47117188 34.1959375 -22.68359375 34.296875 C-16.32006729 35.18516509 -10.09386026 36.33725413 -3.875 37.9375 C-2.01488281 38.41509766 -2.01488281 38.41509766 -0.1171875 38.90234375 C4.48157032 40.52170584 4.48157032 40.52170584 6 43 C6.9742904 50.43135224 7.12506583 59.46335722 3 66 C-8.08352045 78.15237148 -27.34970424 85.4801115 -43.41015625 86.375 C-54.90028277 86.74605873 -64.70583173 86.03507181 -74.9375 80.375 C-81.24899204 73.10722129 -83.3803713 64.94137081 -83.27734375 55.54296875 C-82.36253257 43.85657798 -78.31475892 33.34606403 -73 23 C-71.02 23.66 -69.04 24.32 -67 25 C-67.57990285 29.13867508 -68.5660638 32.73104775 -70.0625 36.625 C-72.1439451 42.72500151 -73.0327309 48.5896253 -72 55 C-71.04906703 56.69514137 -70.05542633 58.36786856 -69 60 C-69 60.66 -69 61.32 -69 62 C-67.35293725 62.71372719 -65.67798788 63.36236461 -64 64 C-63.30648437 64.26425781 -62.61296875 64.52851563 -61.8984375 64.80078125 C-46.44930655 70.10984742 -28.70405296 66.21352369 -14 60 C-10.96596183 58.39167009 -7.97627132 56.71256637 -5 55 C-5.66531738 54.89977539 -6.33063477 54.79955078 -7.01611328 54.69628906 C-10.05500204 54.22958179 -13.08978729 53.74002229 -16.125 53.25 C-17.69507812 53.01410156 -17.69507812 53.01410156 -19.296875 52.7734375 C-25.12572227 51.8142601 -29.51326323 50.95799675 -34 47 C-36.78837137 38.63488588 -34.68085378 30.73950781 -31 23 C-25.59812443 13.30801501 -19.10924995 2.88025808 -7.94921875 -0.6484375 C-5.0752515 -1.16678831 -2.81292979 -0.71819484 0 0 Z " fill="#000000" transform="translate(124,77)"/>
<path d="M0 0 C3.6754537 0.50851286 6.89475386 1.6498316 10.3125 3.0625 C11.19550781 3.42472656 12.07851563 3.78695312 12.98828125 4.16015625 C13.65214844 4.43730469 14.31601562 4.71445313 15 5 C15 6.32 15 7.64 15 9 C18.34962657 12.8923035 22.34238138 15.93464805 26.4375 19 C40.44786558 29.56140633 40.44786558 29.56140633 41.75 35.3125 C42.37162007 41.49416628 41.7973369 48.06732698 40 54 C35.06214444 58.44866965 29.25417402 61.30929486 23.4375 64.4375 C22.41591797 64.99759766 21.39433594 65.55769531 20.34179688 66.13476562 C-1.79221665 78.10249407 -1.79221665 78.10249407 -13 76 C-16.71011329 74.14140992 -18.66786391 71.99640827 -20 68 C-20.58946956 58.21707251 -19.9957385 49.41517813 -17 40 C-14.69 40.33 -12.38 40.66 -10 41 C-10.08378906 42.13179687 -10.16757813 43.26359375 -10.25390625 44.4296875 C-10.35706608 45.91143781 -10.45991453 47.39320982 -10.5625 48.875 C-10.61857422 49.62136719 -10.67464844 50.36773437 -10.73242188 51.13671875 C-11.13388925 55.19061542 -11.13388925 55.19061542 -10 59 C4.78232099 57.33042314 18.15226723 49.01845671 31 42 C29.59331787 38.6008606 28.09939844 37.07942997 25.03515625 35.08203125 C24.23956299 34.55496582 23.44396973 34.02790039 22.62426758 33.48486328 C21.77888428 32.9329834 20.93350098 32.38110352 20.0625 31.8125 C18.33700875 30.64157868 16.61304411 29.46840451 14.890625 28.29296875 C12.0545908 26.36898481 9.20142802 24.49399215 6.296875 22.67578125 C3.28160462 20.60376954 1.10642617 18.99601096 -1 16 C-1.93042822 10.81693659 -1.82677565 6.22735575 -1 1 C-0.67 0.67 -0.34 0.34 0 0 Z " fill="#000000" transform="translate(252,72)"/>
<path d="M0 0 C4.28087732 0.54609432 7.56187072 1.55287781 11.375 3.5625 C12.68597656 4.24505859 12.68597656 4.24505859 14.0234375 4.94140625 C15.00183594 5.46541016 15.00183594 5.46541016 16 6 C15.67 7.32 15.34 8.64 15 10 C15.82242188 10.6290625 16.64484375 11.258125 17.4921875 11.90625 C20.42379898 14.1513644 23.34695957 16.40725736 26.26806641 18.66601562 C27.82247594 19.86326594 29.38532302 21.04954274 30.94921875 22.234375 C39.96390169 29.18740399 39.96390169 29.18740399 42 34 C42.73458371 40.82389601 42.41536936 47.55901503 40 54 C33.4776036 60.06619854 24.80252009 63.84596022 17 68 C16.24444824 68.40959961 15.48889648 68.81919922 14.71044922 69.24121094 C5.93294106 73.95222634 -2.73516133 78.5222175 -13 76 C-16.36006428 73.79195776 -18.72847479 71.86375065 -20 68 C-20.98532 58.30035639 -19.3890897 49.35726799 -17 40 C-14.69 40.33 -12.38 40.66 -10 41 C-10 46.94 -10 52.88 -10 59 C-3.94845771 58.24355721 0.12943002 57.44742126 5.4375 55 C6.11055176 54.69892334 6.78360352 54.39784668 7.47705078 54.08764648 C13.65290776 51.2727469 19.64345725 48.11096448 25.59155273 44.84570312 C30.80351987 42 30.80351987 42 33 42 C33 41.34 33 40.68 33 40 C32.4212915 39.72687988 31.84258301 39.45375977 31.24633789 39.17236328 C29.02072704 38.01081744 27.08604987 36.71961209 25.05859375 35.2421875 C24.31464355 34.70368164 23.57069336 34.16517578 22.80419922 33.61035156 C21.20460247 32.43746796 19.60865567 31.2595927 18.01611328 30.07714844 C12.86169868 26.25909688 12.86169868 26.25909688 7.37109375 22.9609375 C4.2291623 21.1667185 2.15836306 19.91495055 0 17 C-1.24607587 11.38783952 -0.6364488 5.65732264 0 0 Z " fill="#000000" transform="translate(158,72)"/>
<path d="M0 0 C1.32 0 2.64 0 4 0 C4.40992188 1.18078125 4.81984375 2.3615625 5.2421875 3.578125 C5.78631853 5.13546552 6.3305971 6.6927545 6.875 8.25 C7.14441406 9.02730469 7.41382813 9.80460937 7.69140625 10.60546875 C8.08779297 11.73662109 8.08779297 11.73662109 8.4921875 12.890625 C8.73308105 13.58188477 8.97397461 14.27314453 9.22216797 14.98535156 C9.96461845 17.04424931 9.96461845 17.04424931 11.11767578 19.02246094 C12.4953305 22.11017627 11.62179213 24.7666809 11 28 C10.34 27.67 9.68 27.34 9 27 C9.144375 28.21429688 9.28875 29.42859375 9.4375 30.6796875 C10.58348246 40.97315663 11.23451147 51.20352299 11.3125 61.5625 C11.32990234 62.61872559 11.34730469 63.67495117 11.36523438 64.76318359 C11.35858536 75.37001844 9.16901695 84.73141789 4 94 C2.68 93.34 1.36 92.68 0 92 C0.05800781 90.71738281 0.11601562 89.43476563 0.17578125 88.11328125 C0.74571524 68.34314099 -1.73227978 48.9431076 -4.12445068 29.3550415 C-4.42325354 26.90413588 -4.71209945 24.45220733 -5 22 C-5.16786766 20.65621277 -5.16786766 20.65621277 -5.33912659 19.28527832 C-5.44184372 18.4003772 -5.54456085 17.51547607 -5.65039062 16.60375977 C-5.79462463 15.40880638 -5.79462463 15.40880638 -5.94177246 14.18971252 C-6.0340767 10.71850705 -4.75341383 8.34272631 -3.0625 5.375 C-2.49660156 4.35148437 -1.93070312 3.32796875 -1.34765625 2.2734375 C-0.90292969 1.52320313 -0.45820313 0.77296875 0 0 Z " fill="#000000" transform="translate(306,46)"/>
<path d="M0 0 C1.32 0 2.64 0 4 0 C4.40992188 1.09699219 4.81984375 2.19398437 5.2421875 3.32421875 C5.78642886 4.77865686 6.33070133 6.23308333 6.875 7.6875 C7.14441406 8.40873047 7.41382813 9.12996094 7.69140625 9.87304688 C7.95566406 10.57880859 8.21992188 11.28457031 8.4921875 12.01171875 C8.74919434 12.70160889 9.00620117 13.39149902 9.27099609 14.10229492 C9.87681295 15.67932587 10.54069849 17.23390169 11.21875 18.78125 C12.35978432 22.02178748 11.6492861 24.6886409 11 28 C10.67 28 10.34 28 10 28 C10.0721875 28.86753906 10.144375 29.73507813 10.21875 30.62890625 C10.88724818 39.97859603 11.18931537 49.33471716 11.28710938 58.70724487 C11.31191473 60.70291327 11.35688643 62.69829871 11.40234375 64.69360352 C11.46732992 75.37773584 9.82594526 84.88946832 4 94 C2.68 93.34 1.36 92.68 0 92 C0.02618408 91.3822168 0.05236816 90.76443359 0.0793457 90.12792969 C0.86972835 67.94919222 -1.65000823 46.3562661 -4.42749023 24.3894043 C-4.52130478 23.64303207 -4.61511932 22.89665985 -4.71177673 22.12767029 C-4.98307515 20.12493963 -5.31478668 18.13065866 -5.65039062 16.13769531 C-6.1119256 11.99548337 -4.92467813 9.74885263 -3.0625 6.0625 C-2.49660156 4.91910156 -1.93070313 3.77570312 -1.34765625 2.59765625 C-0.90292969 1.74042969 -0.45820313 0.88320313 0 0 Z " fill="#000000" transform="translate(212,46)"/>
<path d="M0 0 C3.66060821 0.58536753 5.54535164 2.083239 8.25 4.5625 C8.95640625 5.20316406 9.6628125 5.84382813 10.390625 6.50390625 C10.92171875 6.99761719 11.4528125 7.49132813 12 8 C10.5140084 12.59306496 8.14985318 15.43569245 5 19 C1.33939179 18.41463247 -0.54535164 16.916761 -3.25 14.4375 C-3.95640625 13.79683594 -4.6628125 13.15617187 -5.390625 12.49609375 C-5.92171875 12.00238281 -6.4528125 11.50867188 -7 11 C-5.5140084 6.40693504 -3.14985318 3.56430755 0 0 Z " fill="#000000" transform="translate(419,56)"/>
</svg>
