<?xml version="1.0" encoding="utf-8"?>
<svg width="710" height="207" viewBox="0 0 710 207" fill="none" xmlns="http://www.w3.org/2000/svg">
  <defs>
    <clipPath id="clip_path_1">
      <rect width="710" height="207" />
    </clipPath>
  </defs>
  <g clip-path="url(#clip_path_1)">
    <path d="M42.9168 0C44.2368 0 45.5568 0 46.9168 0C51.5811 11.0113 55.2416 22.1562 58.6043 33.625C59.5378 36.8071 60.4804 39.9863 61.4286 43.1641C61.6349 43.8787 61.8412 44.5932 62.0537 45.3295C63.2251 49.2528 64.5181 52.6644 66.9168 56C74.0011 59.6285 82.4973 58.325 90.0067 56.7305C92.2268 55.8815 93.3658 54.7746 94.9168 53C94.5868 52.34 94.2568 51.68 93.9168 51C95.0085 49.3251 96.1156 47.6603 97.2293 46C97.8442 45.0719 98.4591 44.1438 99.0926 43.1875C99.6946 42.4656 100.297 41.7438 100.917 41C105.125 41 106.759 43.4042 109.604 46.1875C116.981 53.168 122.947 58.1803 133.507 57.9844C148.652 57.4126 161.777 56.2861 174.917 48C169.855 45.8783 164.745 44.6356 159.417 43.375C158.48 43.1455 157.543 42.9161 156.577 42.6797C155.214 42.3548 155.214 42.3548 153.823 42.0234C153.001 41.8267 152.18 41.63 151.333 41.4272C148.784 40.9764 146.5 40.8234 143.917 41C142.102 42.3959 142.102 42.3959 140.917 44C137.947 43.01 137.947 43.01 134.917 42C134.917 37.4421 135.678 36.4492 138.292 32.875C138.918 32.0062 139.545 31.1373 140.19 30.2422C143.399 26.0752 143.399 26.0752 146.079 25.686C153.677 25.6238 160.187 27.1396 167.417 29.375C178.661 32.7691 189.345 35.1781 201.104 35.625C201.961 35.6637 202.817 35.7023 203.7 35.7422C205.772 35.8348 207.844 35.9184 209.917 36C209.093 40.9507 207.239 44.5796 204.917 49C200.297 49 195.677 49 190.917 49C192.23 54.9854 192.23 54.9854 195.917 57C204.987 58.7429 218.393 60.0296 226.917 56C229.694 52.9247 231.79 49.5453 233.917 46C235.119 44.0378 236.327 42.0794 237.542 40.125C238.07 39.2407 238.599 38.3564 239.143 37.4453C241.805 33.7748 244.523 31.4447 248.854 30.0625C252.831 29.9813 254.627 30.76 257.917 33C263.207 38.5232 264.63 44.4416 265.229 51.875C265.033 58.1238 263.331 64.4666 259.729 69.625C256.793 72.1046 255.101 72.8741 251.241 72.6094C247.237 71.5596 243.849 69.4537 240.335 67.3125C237.936 65.7615 237.936 65.7615 234.917 66C233.574 67.6284 232.573 69.3654 231.491 71.1758C228.624 74.4977 225.086 75.8489 220.792 76.4041C217.208 76.4361 213.626 76.4579 210.042 76.4375C208.8 76.4575 207.559 76.4775 206.28 76.498C198.336 76.4938 192.436 75.9849 186.27 70.5474C184.24 68.2255 183.902 65.7903 183.229 62.8125C182.978 61.7258 182.727 60.6391 182.468 59.5195C182.195 58.2724 182.195 58.2724 181.917 57C181.134 57.8701 181.134 57.8701 180.335 58.7578C171.133 68.5233 159.016 75.5249 145.344 76.1101C142.326 76.1702 139.311 76.1856 136.292 76.1875C135.255 76.1997 134.219 76.212 133.151 76.2246C131.655 76.2275 131.655 76.2275 130.128 76.2305C128.771 76.2366 128.771 76.2366 127.387 76.2429C124.785 75.987 123.154 75.3169 120.917 74C120.69 75.2169 120.463 76.4337 120.229 77.6875C119.174 81.9677 117.349 84.1683 113.917 87C110.807 88.5548 108.354 88.2864 104.917 88C99.5467 85.5782 97.7993 82.4445 95.6786 77.2188C94.9717 75.1599 94.4036 73.1205 93.9168 71C92.7721 71.9591 92.7721 71.9591 91.6043 72.9375C86.824 76.6061 82.374 76.2472 76.6043 76.3125C75.7619 76.3415 74.9195 76.3705 74.0516 76.4004C68.4746 76.4571 65.3335 75.7231 60.9168 72C57.4326 68.2726 55.0177 64.6441 52.9168 60C52.2568 60.7012 51.5968 61.4025 50.9168 62.125C41.3199 71.5629 27.2945 79.7184 13.5497 80.0586C9.41544 79.8485 7.3595 79.3297 3.97934 76.8125C-1.10275 69.8824 -0.312744 63.1152 0.91684 55C1.89603 50.2379 3.03601 45.4881 4.91684 41C7.91684 40 7.91684 40 10.1043 40.9375C11.0015 41.4634 11.0015 41.4634 11.9168 42C11.7609 42.6407 11.6049 43.2813 11.4442 43.9414C10.2254 49.3573 9.64658 53.5725 10.9168 59C12.4557 60.5389 13.8271 60.3189 15.9793 60.4375C27.3072 60.3237 38.7579 54.2087 47.9168 48C46.4452 40.6198 44.1371 33.9208 41.3954 26.9297C38.637 19.7147 37.0436 14.1495 39.7918 6.625C40.1605 5.58601 40.5292 4.54703 40.909 3.47656C41.9168 1 41.9168 1 42.9168 0ZM244.667 46.9375C243.801 47.9584 243.801 47.9584 242.917 49C244.131 52.6419 245.007 52.9175 248.292 54.6875C249.083 55.1245 249.875 55.5615 250.69 56.0117C252.968 57.2028 252.968 57.2028 255.917 57C255.466 52.1556 254.377 49.4601 250.917 46C247.844 44.3676 247.34 44.6357 244.667 46.9375ZM101.917 59C101.557 63.5929 101.338 66.9498 103.604 71.0625C105.766 73.221 105.766 73.221 108.604 73.375C110.873 73.2384 110.873 73.2384 111.917 72C112.419 69.6704 112.419 69.6704 111.917 67C109.646 64.3126 109.646 64.3126 106.917 62C106.36 61.4019 105.803 60.8038 105.229 60.1875C103.965 58.7764 103.965 58.7764 101.917 59Z" fill="#000000" transform="translate(445.083 60)" />
    <path d="M42.9168 0C44.2368 0 45.5568 0 46.9168 0C51.5811 11.0113 55.2416 22.1562 58.6043 33.625C59.5378 36.8071 60.4804 39.9863 61.4286 43.1641C61.6349 43.8787 61.8412 44.5932 62.0537 45.3295C63.2247 49.2511 64.5002 52.6773 66.9168 56C79.5752 61.8127 99.8295 57.5746 112.499 53C114.698 52.0904 116.795 51.0757 118.917 50C115.695 48.7923 112.463 47.6125 109.229 46.4375C108.317 46.0953 107.405 45.753 106.466 45.4004C105.579 45.0814 104.693 44.7623 103.78 44.4336C102.968 44.1351 102.157 43.8366 101.32 43.5291C98.5135 42.9112 96.6605 43.2078 93.9168 44C93.5868 44.33 93.2568 44.66 92.9168 45C87.6667 44.5474 82.9388 43.5694 77.9168 42C78.9701 35.8857 83.7985 31.5764 88.6043 28C99.1469 24.8173 107.471 28.0016 117.353 31.7888C131.589 37.239 145.746 40.598 160.917 42C159.482 45.2089 157.699 47.5781 155.354 50.1875C154.734 50.8823 154.114 51.5771 153.475 52.293C152.638 53.2099 151.795 54.122 150.917 55C149.195 55.0381 147.473 55.0725 145.75 55.0862C136.421 55.2549 130.642 57.6232 122.917 63C115.159 68.0284 107.822 72.3686 98.9168 75C98.3386 75.1743 97.7604 75.3487 97.1646 75.5283C91.9127 76.6304 86.3862 76.272 81.0418 76.3125C79.1411 76.356 79.1411 76.356 77.202 76.4004C65.6553 76.4793 65.6553 76.4793 60.9168 72C57.4326 68.2726 55.0177 64.6441 52.9168 60C52.2568 60.7012 51.5968 61.4025 50.9168 62.125C41.3199 71.5629 27.2945 79.7184 13.5497 80.0586C9.41544 79.8485 7.3595 79.3297 3.97934 76.8125C-1.10275 69.8824 -0.312744 63.1152 0.91684 55C1.89603 50.2379 3.03601 45.4881 4.91684 41C7.91684 40 7.91684 40 10.1043 40.9375C11.0015 41.4634 11.0015 41.4634 11.9168 42C11.7609 42.6407 11.6049 43.2813 11.4442 43.9414C10.2254 49.3573 9.64658 53.5725 10.9168 59C12.4557 60.5389 13.8271 60.3189 15.9793 60.4375C27.3072 60.3237 38.7579 54.2087 47.9168 48C46.4452 40.6198 44.1371 33.9208 41.3954 26.9297C38.637 19.7147 37.0436 14.1495 39.7918 6.625C40.1605 5.58601 40.5292 4.54703 40.909 3.47656C41.9168 1 41.9168 1 42.9168 0Z" fill="#000000" transform="translate(284.083 60)" />
    <path d="M83.2809 0.872711C85.8083 2.79002 86.2526 3.78776 87.2809 6.87271C87.4242 8.70233 87.5013 10.5377 87.5309 12.3727C87.5567 13.3318 87.5825 14.2908 87.609 15.279C87.2809 17.8727 87.2809 17.8727 86.0153 19.7165C84.2809 20.8727 84.2809 20.8727 80.2809 20.8727C79.7859 19.8827 79.7859 19.8827 79.2809 18.8727C72.5313 18.726 69.2846 21.9724 64.527 26.5055C62.0045 29.164 60.0765 31.6896 58.2809 34.8727C59.0453 34.9707 59.8097 35.0686 60.5973 35.1696C66.9608 36.0579 73.187 37.21 79.4059 38.8102C81.266 39.2878 81.266 39.2878 83.1637 39.7751C87.7625 41.3944 87.7625 41.3944 89.2809 43.8727C90.2552 51.3041 90.406 60.3361 86.2809 66.8727C75.1974 79.0251 55.9312 86.3528 39.8707 87.2477C28.3806 87.6188 18.5751 86.9078 8.34338 81.2477C2.03189 73.9799 -0.0994873 65.8141 0.00354004 56.4157C0.91835 44.7293 4.96613 34.2188 10.2809 23.8727C12.2609 24.5327 14.2409 25.1927 16.2809 25.8727C15.701 30.0114 14.7148 33.6038 13.2184 37.4977C11.1369 43.5977 10.2482 49.4623 11.2809 55.8727C12.2318 57.5678 13.2255 59.2406 14.2809 60.8727C14.2809 61.5327 14.2809 62.1927 14.2809 62.8727C15.9279 63.5864 17.6029 64.2351 19.2809 64.8727C19.9744 65.137 20.6679 65.4012 21.3824 65.6735C36.8316 70.9826 54.5768 67.0862 69.2809 60.8727C72.3149 59.2644 75.3046 57.5853 78.2809 55.8727C77.6156 55.7725 76.9502 55.6723 76.2648 55.569C73.2259 55.1023 70.1911 54.6127 67.1559 54.1227C65.5858 53.8868 65.5858 53.8868 63.984 53.6461C58.1552 52.687 53.7676 51.8307 49.2809 47.8727C46.4925 39.5076 48.6 31.6122 52.2809 23.8727C57.6828 14.1807 64.1716 3.75297 75.3317 0.224274C78.2056 -0.294083 80.468 0.15451 83.2809 0.872711Z" fill="#000000" transform="translate(-0.281 76.127)" />
    <path d="M20.2043 0C23.8798 0.508514 27.0991 1.64983 30.5168 3.0625C31.3998 3.42473 32.2828 3.78696 33.1926 4.16016C33.8565 4.4373 34.5203 4.71445 35.2043 5C35.2043 6.32 35.2043 7.64 35.2043 9C38.554 12.8923 42.5467 15.9346 46.6418 19C60.6522 29.5614 60.6522 29.5614 61.9543 35.3125C62.5759 41.4942 62.0016 48.0673 60.2043 54C55.2665 58.4487 49.4585 61.3093 43.6418 64.4375C42.6202 64.9976 41.5987 65.5577 40.5461 66.1348C18.4121 78.1025 18.4121 78.1025 7.20432 76C3.4942 74.1414 1.53645 71.9964 0.204315 68C-0.385147 58.2171 0.208588 49.4152 3.20432 40C5.51433 40.33 7.82433 40.66 10.2043 41C10.1205 42.1318 10.0367 43.2636 9.95041 44.4297C9.84726 45.9114 9.7444 47.3932 9.64182 48.875C9.58575 49.6214 9.52968 50.3677 9.47189 51.1367C9.07043 55.1906 9.07043 55.1906 10.2043 59C24.9866 57.3304 38.3566 49.0185 51.2043 42C49.7976 38.6009 48.3037 37.0794 45.2395 35.082C44.4439 34.555 43.6483 34.0279 42.8286 33.4849C41.9832 32.933 41.1378 32.3811 40.2668 31.8125C38.5413 30.6416 36.8174 29.4684 35.0949 28.293C32.2589 26.369 29.4057 24.494 26.5012 22.6758C23.4859 20.6038 21.3107 18.996 19.2043 16C18.2739 10.8169 18.3775 6.22736 19.2043 1C19.5343 0.669998 19.8643 0.339996 20.2043 0Z" fill="#000000" transform="translate(190.796 72)" />
    <path d="M20.2959 0C24.5768 0.546097 27.8578 1.55288 31.6709 3.5625C32.9819 4.24506 32.9819 4.24506 34.3194 4.94141C35.2977 5.46541 35.2977 5.46541 36.2959 6C35.9659 7.32 35.6359 8.64 35.2959 10C36.1183 10.6291 36.9408 11.2581 37.7881 11.9063C40.7197 14.1514 43.6429 16.4073 46.564 18.666C48.1184 19.8633 49.6812 21.0495 51.2451 22.2344C60.2598 29.1874 60.2598 29.1874 62.2959 34C63.0305 40.8239 62.7113 47.559 60.2959 54C53.7735 60.0662 45.0984 63.846 37.2959 68C36.5404 68.4096 35.7848 68.8192 35.0064 69.2412C26.2289 73.9522 17.5608 78.5222 7.29591 76C3.93585 73.792 1.56744 71.8638 0.295914 68C-0.689407 58.3004 0.906822 49.3573 3.29591 40C5.60591 40.33 7.91592 40.66 10.2959 41C10.2959 46.94 10.2959 52.88 10.2959 59C16.3475 58.2436 20.4253 57.4474 25.7334 55C26.4065 54.6989 27.0795 54.3978 27.773 54.0876C33.9488 51.2728 39.9394 48.111 45.8875 44.8457C51.0994 42 51.0994 42 53.2959 42C53.2959 41.34 53.2959 40.68 53.2959 40C52.7172 39.7269 52.1385 39.4538 51.5423 39.1724C49.3166 38.0108 47.382 36.7196 45.3545 35.2422C44.6105 34.7037 43.8666 34.1652 43.1001 33.6104C41.5005 32.4375 39.9046 31.2596 38.312 30.0771C33.1576 26.2591 33.1576 26.2591 27.667 22.9609C24.5251 21.1667 22.4543 19.9149 20.2959 17C19.0498 11.3878 19.6595 5.65733 20.2959 0Z" fill="#000000" transform="translate(96.704 72)" />
    <path d="M5.94647 0C7.26648 0 8.58646 0 9.94647 0C10.3564 1.18078 10.7663 2.36156 11.1887 3.57813C11.7328 5.13547 12.2771 6.69275 12.8215 8.25C13.0909 9.02731 13.3603 9.80461 13.6379 10.6055C14.0343 11.7366 14.0343 11.7366 14.4387 12.8906C14.6795 13.5819 14.9204 14.2731 15.1686 14.9854C15.9111 17.0443 15.9111 17.0443 17.0641 19.0225C18.4418 22.1102 17.5683 24.7667 16.9465 28C16.2865 27.67 15.6265 27.34 14.9465 27C15.0909 28.2143 15.2352 29.4286 15.384 30.6797C16.5299 40.9732 17.181 51.2035 17.259 61.5625C17.2764 62.6187 17.2938 63.6749 17.3117 64.7632C17.3051 75.37 15.1155 84.7314 9.94647 94C8.62646 93.34 7.30646 92.68 5.94647 92C6.00449 90.7174 6.06247 89.4348 6.12225 88.1133C6.69217 68.3431 4.21417 48.9431 1.82202 29.355C1.52322 26.9041 1.23438 24.4522 0.946472 22C0.778595 20.6562 0.778595 20.6562 0.60733 19.2853C0.504608 18.4004 0.401917 17.5155 0.296082 16.6038C0.151825 15.4088 0.151825 15.4088 0.00469971 14.1897C-0.087616 10.7185 1.19305 8.34273 2.88397 5.375C3.44986 4.35148 4.01575 3.32797 4.59882 2.27344C5.04355 1.5232 5.48825 0.772968 5.94647 0Z" fill="#000000" transform="translate(259.054 46)" />
    <path d="M5.75014 0C7.07014 0 8.39014 0 9.75014 0C10.1601 1.09699 10.57 2.19398 10.9923 3.32422C11.5366 4.77866 12.0808 6.23308 12.6251 7.6875C12.8945 8.40873 13.164 9.12996 13.4415 9.87305C13.7058 10.5788 13.9701 11.2846 14.2423 12.0117C14.4993 12.7016 14.7563 13.3915 15.0211 14.1023C15.627 15.6793 16.2908 17.2339 16.9689 18.7813C18.1099 22.0218 17.3994 24.6886 16.7501 28C16.4201 28 16.0901 28 15.7501 28C15.8223 28.8675 15.8945 29.7351 15.9689 30.6289C16.6374 39.9786 16.9395 49.3347 17.0372 58.7072C17.0621 60.7029 17.107 62.6983 17.1525 64.6936C17.2175 75.3777 15.5761 84.8895 9.75014 94C8.43013 93.34 7.11014 92.68 5.75014 92C5.77632 91.3822 5.80251 90.7644 5.82948 90.1279C6.61987 67.9492 4.10013 46.3563 1.32265 24.3894C1.22884 23.643 1.13503 22.8967 1.03836 22.1277C0.767059 20.1249 0.435349 18.1307 0.0997467 16.1377C-0.361786 11.9955 0.825455 9.74885 2.68764 6.0625C3.25354 4.9191 3.81943 3.7757 4.40248 2.59766C4.84721 1.74043 5.29193 0.883202 5.75014 0Z" fill="#000000" transform="translate(165.25 46)" />
    <path d="M7 0C10.6606 0.585369 12.5453 2.08324 15.25 4.5625C15.9564 5.20316 16.6628 5.84383 17.3906 6.50391C17.9217 6.99762 18.4528 7.49133 19 8C17.514 12.5931 15.1498 15.4357 12 19C8.33939 18.4146 6.45465 16.9168 3.75 14.4375C3.04358 13.7968 2.33719 13.1562 1.60938 12.4961C1.07828 12.0024 0.54718 11.5087 0 11C1.48599 6.40694 3.85016 3.56431 7 0Z" fill="#000000" transform="translate(371 56)" />
  </g>
</svg>