<?xml version="1.0" encoding="utf-8"?>
<svg width="672" height="195" viewBox="0 0 672 195" fill="none" xmlns="http://www.w3.org/2000/svg">
  <defs>
    <clipPath id="clip_path_1">
      <rect width="672" height="195" />
    </clipPath>
  </defs>
  <g clip-path="url(#clip_path_1)">
    <path d="M41.235 0.258034C48.0427 4.20454 49.5964 11.743 52.1049 19.1975C56.6131 35.2286 56.6131 35.2286 66.3137 47.258C68.4951 47.8249 68.4951 47.8249 70.7257 47.9455C71.468 48.0113 72.2104 48.077 72.9752 48.1447C73.8157 48.2008 73.8157 48.2008 74.6732 48.258C74.7643 47.5336 74.8553 46.8091 74.949 46.0627C76.0323 38.522 77.5378 33.3678 83.265 28.508C88.5477 24.7286 94.396 23.6315 100.681 24.258C107.913 26.9593 111.282 32.9407 114.555 40.008C114.947 40.931 115.338 41.854 115.742 42.8049C117.921 46.0289 120.438 47.1628 123.902 48.258C126.565 48.4483 128.979 48.501 131.623 48.3674C132.699 48.3313 132.699 48.3313 133.797 48.2945C136.073 48.214 138.346 48.1109 140.621 48.008C142.147 47.9533 143.673 47.8999 145.2 47.8479C146.673 47.7931 148.146 47.7372 149.619 47.6799C150.296 47.6538 150.974 47.6277 151.672 47.6007C155.792 47.4123 159.776 46.9537 163.842 46.258C163.842 45.598 163.842 44.938 163.842 44.258C161.07 43.2037 158.282 42.2213 155.482 41.258C154.601 40.928 153.72 40.598 152.812 40.258C148.717 40.258 145.83 42.186 142.192 44.094C138.792 45.6773 136.824 45.9916 133.19 45.258C131.332 43.758 131.332 43.758 130.404 41.258C130.154 33.6001 133.585 28.1891 137.834 22.258C142.339 17.19 145.857 15.1119 152.464 14.758C159.308 14.7663 164.144 17.2771 170.053 20.6291C176.294 23.9327 182.815 23.5591 189.648 23.7756C190.856 23.8269 190.856 23.8269 192.088 23.8791C192.817 23.9042 193.547 23.9292 194.298 23.9551C196.586 24.2926 198.106 24.9558 200.067 26.258C202.483 30.5497 202.448 35.3899 201.924 40.258C200.821 43.258 200.821 43.258 199.138 45.258C195.535 46.6587 191.789 46.3382 187.992 46.258C187.992 46.918 187.992 47.578 187.992 48.258C191.746 48.3455 195.499 48.3986 199.254 48.4455C200.315 48.4707 201.376 48.4958 202.469 48.5217C210.111 48.7794 210.111 48.7794 216.786 45.258C217.683 42.7252 217.683 42.7252 217.773 39.883C218.26 35.8667 218.474 34.4939 220.849 31.1955C227.121 26.2116 233.398 26.4589 240.936 27.258C245.702 28.7812 249.694 30.9384 252.604 35.383C257.444 45.8035 255.003 59.5264 252.082 70.258C250.633 74.7142 249.095 77.5286 245.87 80.758C241.882 82.7025 238.743 83.0851 234.434 82.258C232.448 81.3195 230.603 80.2309 228.712 79.0901C226.032 77.7853 224.179 78.3572 221.43 79.258C220.318 79.7685 220.318 79.7685 219.184 80.2893C214.305 81.7099 209.569 81.6266 204.537 81.633C203.54 81.6575 202.543 81.682 201.516 81.7072C190.862 81.7489 183.143 78.4706 174.988 71.258C172.655 69.229 172.655 69.229 170.344 68.258C166.787 68.8791 164.898 71.0452 162.391 73.633C154.274 81.4431 144.13 81.8804 133.713 81.6955C132.561 81.7026 131.41 81.7097 130.224 81.717C120.631 81.6445 120.631 81.6445 116.471 78.258C116.471 77.598 116.471 76.938 116.471 76.258C116.04 76.619 115.609 76.9799 115.165 77.3518C108.32 82.3012 101.17 82.4002 93.2501 81.258C90.9175 80.2249 89.2255 79.1626 87.2852 77.4494C85.5168 76.0121 84.3184 75.4458 82.104 75.258C80.6321 76.4699 80.6321 76.4699 79.3174 78.1955C76.3367 81.1367 74.2376 81.7894 70.2032 81.9455C63.756 81.5633 58.0194 79.524 53.5168 74.3674C52.6045 73.1378 51.6958 71.905 50.7919 70.6682C49.6025 69.047 49.6025 69.047 47.3305 68.383C44.0741 69.5802 42.4067 71.7558 40.0921 74.4377C35.3415 79.6991 30.6419 81.4209 23.8773 81.5705C16.7863 81.4764 12.7451 80.4428 7.62265 75.1643C1.57336 68.1863 -0.123749 63.1133 0.00689697 53.5588C0.673584 47.4323 3.48291 43.4163 6.86798 38.633C8.72565 37.258 8.72565 37.258 10.957 37.3948C14.0238 38.492 14.8619 39.8589 16.6788 42.6955C18.7301 45.8729 20.1288 47.9897 23.5871 49.258C26.1117 49.5361 26.1117 49.5361 28.7538 49.4455C29.6362 49.4391 30.5186 49.4326 31.4278 49.426C33.9162 49.3586 33.9162 49.3586 36.5908 48.258C36.0715 43.821 35.0269 40.4034 33.1657 36.4143C32.67 35.3328 32.1743 34.2512 31.6636 33.1369C31.144 32.0219 30.6244 30.9069 30.089 29.758C29.0566 27.5429 28.0308 25.3242 27.0122 23.1018C26.556 22.124 26.0998 21.1463 25.6298 20.1389C24.1273 16.2529 23.2625 12.85 24.1096 8.69553C28.0313 1.53608 33.8171 -0.848164 41.235 0.258034ZM93.2766 44.2581C92.1826 46.5618 92.1826 46.5618 92.3477 49.2581C94.3817 54.0585 96.4067 57.4799 100.708 60.2581C102.772 60.515 102.772 60.515 104.423 59.2581C106.86 55.0606 106.925 50.0524 106.281 45.2581C104.965 42.1096 104.965 42.1096 102.565 40.2581C98.0629 39.3492 95.9608 40.2982 93.2766 44.2581ZM233.597 46.258C231.911 51.0974 231.967 55.2859 233.423 60.1955C234.256 62.1941 234.256 62.1941 235.338 63.258C239.11 63.6989 239.11 63.6989 242.431 62.0783C244.978 58.4168 244.819 53.687 244.626 49.258C243.409 45.969 243.409 45.969 240.911 44.258C237.422 43.4913 236.073 43.4142 233.597 46.258Z" fill="#000000" transform="translate(416.57 49)" />
    <path d="M43.6501 1.09272C49.3513 6.73299 51.2138 15.4784 53.6352 23.1552C57.5294 36.947 57.5294 36.947 66.2328 47.2177C73.6697 50.1946 84.1399 48.2917 92.0084 47.8427C93.2296 47.7731 94.4509 47.7035 95.7092 47.6318C98.8723 47.4465 98.8723 47.4465 101.529 45.2177C95.6787 41.4629 91.7986 39.5907 84.8098 40.2177C82.9064 41.1305 82.9064 41.1305 81.0363 42.2802C78.3336 43.8735 77.4605 44.2193 74.2441 44.1552C71.8058 43.2177 71.8058 43.2177 69.9482 40.2177C69.8311 34.7992 72.2343 32.0485 75.4995 28.3037C76.1197 27.6153 76.7399 26.9269 77.379 26.2177C77.98 25.5087 78.5811 24.7998 79.2004 24.0693C84.118 18.4401 88.4963 14.9822 95.6076 13.5302C105.017 14.1249 114.175 22.2605 121.481 27.9443C125.779 31.0935 130.526 33.2918 135.295 35.4792C141.61 38.4495 141.61 38.4495 143.327 42.2177C144.086 47.1569 144.024 51.7171 141.934 56.2177C137.011 60.4582 131.804 61.3028 125.737 62.4052C115.965 64.4027 107.623 69.332 98.8622 74.2255C87.3478 80.6359 75.6549 83.6598 62.6879 80.6005C57.8211 78.5412 54.6613 75.0662 51.2986 70.8271C49.5934 69.0231 49.5934 69.0231 47.1949 68.749C44.1912 69.3544 43.3124 70.503 41.328 72.9677C35.7498 79.2517 31.6765 81.4176 23.5056 81.7177C15.6927 81.4305 11.3471 79.5196 6.03168 73.4052C1.61472 67.51 -0.232239 62.2634 0.0231628 54.7021C0.801971 47.2958 3.9126 42.4929 8.64404 37.2177C11.6145 37.5299 12.9405 37.8123 15.0009 40.2138C15.5085 41.0195 16.0162 41.8251 16.5393 42.6552C18.857 46.3215 20.4174 48.026 24.4345 49.2177C27.061 49.4941 27.061 49.4941 29.7173 49.4052C30.6022 49.3988 31.487 49.3923 32.3987 49.3857C34.6605 49.3732 34.6605 49.3732 36.5096 48.2177C36.047 42.4941 34.5375 38.3818 32.0395 33.3427C31.3649 31.9292 30.6912 30.5151 30.0185 29.1005C29.396 27.8061 28.7731 26.5118 28.1499 25.2177C25.3315 19.3164 23.5151 14.9265 24.4345 8.21772C26.0829 4.93758 28.2358 2.75731 31.2267 0.842724C35.5649 -0.243446 39.389 -0.400871 43.6501 1.09272Z" fill="#000000" transform="translate(270.746 49)" />
    <path d="M78.4345 4.53302C81.5054 7.17643 82.9006 9.87359 84.0076 13.9705C84.0076 18.4036 83.1676 20.6521 81.2211 24.533C78.8166 25.8274 77.1243 25.614 74.4361 25.5604C73.4531 25.5481 72.4701 25.5359 71.4573 25.5233C69.3819 25.4882 67.3065 25.4492 65.2312 25.4061C64.2458 25.3951 63.2603 25.3842 62.2451 25.3729C60.8911 25.3476 60.8911 25.3476 59.5098 25.3218C56.9948 25.5396 55.5017 26.1484 53.3557 27.533C53.3557 28.853 53.3557 30.173 53.3557 31.533C58.0742 33.9573 62.7829 34.1977 67.9143 34.6561C72.2684 35.1186 75.5769 35.9759 79.3634 38.533C84.141 46.8693 84.1076 57.0002 82.618 66.4588C80.4057 75.111 76.258 82.6316 69.1461 87.533C54.2662 95.4046 35.7658 96.1132 19.7432 91.5682C12.5392 88.7136 6.84037 83.8883 3.19818 76.533C0.630537 70.0704 -0.0693912 64.1469 0.00527945 57.158C0.0123164 56.2355 0.0193462 55.313 0.0265957 54.3626C0.236371 45.0205 1.96585 36.6922 8.11452 29.7205C11.2298 27.3874 13.4392 27.8391 17.1308 28.533C20.5316 30.4805 21.5165 31.7599 22.82 35.658C22.6781 40.3943 21.1546 43.0146 19.0756 47.0994C17.6167 50.5941 17.8993 52.9417 18.9885 56.533C21.3839 60.5446 26.3031 62.0058 30.4313 63.1085C35.6212 63.9934 40.9148 63.7177 46.1572 63.7205C47.9478 63.7389 47.9478 63.7389 49.7746 63.7576C60.8537 64.1272 60.8537 64.1272 70.5974 59.408C71.038 58.7893 71.4787 58.1705 71.9326 57.533C66.5994 56.1703 61.4471 55.3983 55.9681 55.0955C47.1095 54.4438 47.1095 54.4438 43.1385 51.533C37.6415 43.2073 36.8957 35.5845 37.5654 25.533C39.2548 16.0459 44.3166 8.53686 51.6505 3.0213C60.1497 -1.72023 70.3311 -0.628006 78.4345 4.53302Z" fill="#000000" transform="matrix(1 0 0 1 -0.479 73)" />
    <path d="M27.2122 0.474426C37.9714 5.66502 46.2962 17.201 50.7345 28.6463C54.0905 39.2446 54.8555 50.0869 50.4333 60.4744C46.9157 66.6891 41.255 70.9925 34.7618 73.0164C26.0831 75.0275 15.1752 74.9883 7.53587 69.8963C3.42999 66.436 1.38368 62.942 0.275635 57.4744C-0.235191 50.547 -0.388855 44.4959 3.06217 38.4744C5.64327 36.0711 7.1031 35.5285 10.4929 35.2244C14.3286 36.945 15.093 39.4671 16.7409 43.4432C17.7496 45.619 17.7496 45.619 19.7125 46.244C26.4976 47.0556 32.6463 45.9464 39.2872 44.4744C37.9135 40.7023 36.1021 39.2202 32.9739 37.0486C32.0831 36.4164 31.1923 35.7841 30.2745 35.1326C28.4029 33.8294 26.5307 32.5273 24.6579 31.2264C18.9498 27.172 13.638 23.2464 10.4929 16.4744C10.1235 11.7019 10.0522 9.3896 12.1184 5.09943C16.2804 -0.128162 21.0907 -0.612659 27.2122 0.474426Z" fill="#000000" transform="matrix(1 0 0 1 91.477 57)" />
    <path d="M27.2095 0.612991C38.68 6.15458 46.5436 18.0967 51.4501 30.1091C54.3456 38.9388 54.7016 49.8116 51.4538 58.5856C48.0011 65.4268 43.2783 69.9489 36.4979 72.613C28.0398 75.1859 16.5088 75.0745 8.55637 70.8747C4.65988 68.1151 2.70631 65.1182 0.911545 60.4255C-0.379654 52.7167 -0.791565 45.4754 3.05949 38.613C5.81194 36.0501 7.01958 35.5697 10.6644 35.8005C13.2768 36.613 13.2768 36.613 15.1345 38.613C15.5559 39.7886 15.9774 40.9642 16.4116 42.1755C17.5016 45.6845 17.5016 45.6845 19.6336 46.3161C26.4079 47.3203 32.6699 46.2781 39.2845 44.613C36.9873 39.0764 32.9017 36.7252 28.3125 33.613C12.6962 22.8682 12.6962 22.8682 10.4902 15.613C10.0349 11.4819 10.4286 8.18991 12.6164 4.70674C16.8765 0.0986023 21.3931 -0.800991 27.2095 0.612991Z" fill="#000000" transform="matrix(1 0 0 1 183.433 57)" />
    <path d="M18.6742 1.66924C21.261 3.9627 22.3492 5.98141 22.7416 9.58553C22.7431 10.3687 22.7446 11.1519 22.7461 11.9588C22.7547 13.3053 22.7547 13.3053 22.7635 14.679C22.7599 15.6477 22.7562 16.6165 22.7525 17.6146C22.7551 18.6269 22.7578 19.6393 22.7605 20.6823C22.7646 23.9697 22.7529 27.2568 22.7379 30.5442C22.7332 32.2146 22.7332 32.2146 22.7283 33.9187C22.5378 90.2178 22.5378 90.2178 13.7069 101.302C11.3593 103.419 11.3593 103.419 8.45662 103.982C5.78613 103.419 5.78613 103.419 4.26628 101.777C2.65982 98.787 2.53075 96.5782 2.35367 93.1341C2.28348 91.8914 2.21329 90.6488 2.14096 89.3685C2.07837 88.0313 2.01625 86.694 1.95456 85.3567C1.88254 83.9791 1.80951 82.6015 1.73549 81.2239C1.59129 78.5054 1.45422 75.7865 1.32321 73.0672C1.17722 70.1314 1.01126 67.1998 0.822495 64.2669C0.257675 55.1787 0.098877 46.0879 0.0501556 36.9808C0.0391235 35.0448 0.0207062 33.109 0.00202942 31.1731C-0.0161285 10.0873 -0.0161285 10.0873 4.85725 2.41924C8.75307 -0.998213 14.3304 -0.363998 18.6742 1.66924Z" fill="#000000" transform="matrix(1 0 0 1 244.744 27)" />
    <path d="M16.0641 0.318985C18.9806 1.58833 20.2487 2.40482 21.7435 5.37807C22.8583 9.36429 22.8135 13.046 22.78 17.1862C22.7801 18.0496 22.7801 18.913 22.7802 19.8026C22.777 22.5999 22.7595 25.3968 22.7401 28.194C22.7319 30.1164 22.7238 32.0389 22.7159 33.9613C22.4236 89.8959 22.4236 89.8959 12.8421 102.049C11.4198 103.319 11.4198 103.319 8.6333 103.756C5.84677 103.319 5.84677 103.319 4.16324 101.756C1.73129 96.3822 1.92349 89.9751 1.63432 84.0807C1.59422 83.2944 1.55414 82.508 1.51283 81.6979C1.38501 79.1343 1.26361 76.5705 1.1445 74.0065C1.10345 73.1284 1.06241 72.2503 1.02011 71.3455C0.441925 58.7119 0.075943 46.0931 0.0414886 33.444C0.0367737 32.7437 0.0320435 32.0435 0.0271759 31.322C-0.0845947 10.9362 -0.0845947 10.9362 4.91792 2.31898C8.67931 -0.380692 11.6512 -0.215391 16.0641 0.318985Z" fill="#000000" transform="matrix(1 0 0 1 152.781 27)" />
    <path d="M14.3944 0.794369C16.989 3.40144 17.9458 5.99709 18.1098 9.79436C16.2778 15.9189 16.2778 15.9189 13.7558 18.2319C10.492 19.0866 7.50043 19.4909 4.17706 18.7944C1.72784 16.6849 0.732727 15.1729 0.0806885 11.8569C-0.201782 7.73957 0.170197 6.19296 2.60962 2.85687C6.73679 -0.553112 9.41644 -0.449753 14.3944 0.794369Z" fill="#000000" transform="matrix(1 0 0 1 359.916 33)" />
  </g>
</svg>