<svg xmlns="http://www.w3.org/2000/svg" width="732" height="202.07" viewBox="0 0 732 202.07"><path fill="#006879" d="M29.392 172.01c2.004 0 20.04-1.503 24.215-3.173.501-.334 1.169-.501 1.67-.501 1.002.167 3.173-.668 3.507-1.336.167 0 1.002-.167 1.837-.167 1.002 0 1.336-.167 1.336-.501-.167-.167 0-.501.334-.501.167 0 .167.167.167.334s0 .334.167.334c.334 0 .334-.167.334-.334q.2505-.501 1.503-.501c1.336 0 4.342-1.169 5.344-1.837.167-.167.668-.334 1.002-.334.835 0 6.847-5.177 7.181-6.346 2.338-4.175 1.67-6.513 2.505-9.686 2.338-7.682.835-9.853.835-10.02 0-.334 0-.668-.167-.835-.167-.334 0-.501.167-.668l-.334-.668c-.167-4.342-2.672-2.004-3.006-6.346-2.338-5.845-24.215-8.016-23.547-13.527.668-4.175 5.177-4.008 5.845-4.342.668-.501 1.503-.835 1.67-.835.334 0 .501-.167.668-.334s.334-.167.668 0l1.336-.334c.835-.501 1.503-.501 3.006-.334 1.002.167 2.004 0 2.171-.167l1.002-.668c.501-.167.835-.334 1.169 0 .167.334 1.336.501 5.01.668.334 0 .835.167.835.334.167 0 2.171 1.002 3.006 1.169 1.503.334 1.336 2.672 1.336 3.173 0 0 .167.167.334.167.334 0 .501.334.668.668.334 1.002 1.837.835 2.672-.334.668-1.002.835-2.004 1.002-5.01-.334-.501-.501-1.169-.501-1.336 0-.835-.167-1.503-.668-2.171-.334-.501-1.002-5.01-1.336-5.511-.668-1.503-2.505-2.171-5.511-2.839-1.837-.501-10.02-.501-10.688-.167-.334.167-1.169.334-2.004.501-2.839.167-7.348 3.507-8.851 3.841-.668.334-2.004 2.839-2.338 2.839-2.004 0-6.179 11.69-5.678 15.698.334 3.34 2.004 7.348 6.012 11.022 7.682 4.676 15.865 2.171 20.541 10.354l.334 2.338c-.835 2.505-3.841 5.01-8.016 6.68-1.169.501-2.338 1.002-2.505 1.169-.334.167-.668.334-1.002.334-.668 0-6.513 1.837-7.849 2.338-.501.167-.501.334-.334.501.334.167.167.334-.167.334q-.501 0-.501-.501c-.167-.167-.334-.167-1.336.167l-2.338.501c-1.503.167-3.173.501-3.34.668-.501.501.501.668 2.004.167 1.503-.334 2.171-.334 2.672-.167l.668.501-.835.167c-2.338 1.002-6.012 1.67-9.853 2.004l-2.338.334c-.501.167-4.175.501-9.519.668-2.338 0-3.841-.167-4.676-.334-.668-.334-1.336-.501-1.67-.334-.334 0-1.169-.167-2.171-.334s-3.006-.668-4.342-1.002-2.672-.501-2.839-.501c0 0-.334-.167-.334-.334l-1.002-.835c-.835-.334-1.002-.835 0-1.002.668-.167 2.505.334 3.173.835.167.167.501.167 1.002.167.334 0 .668.167.668.501.167.501 1.169.835 1.169.501.167-.334 1.67-.334 1.67.167.167.167.668.334 1.837.167.835-.167 1.67-.167 1.837 0 .668.334 4.008.334 4.008 0 0-.167-.835-.334-1.837-.501s-2.171-.167-2.672-.334c-.501 0-1.169-.167-1.503-.334-.167-.334-.835-.334-1.336-.334-1.169 0-5.344-1.503-6.012-2.171-.167-.167-1.002-.668-2.004-1.169-.835-.501-1.67-1.002-1.837-1.169 0 0-.167-.167-.668 0-.167.167-.501 0-.501-.334-.167-.167-.334-.334-.501-.334-.501-.167-1.169-.501-1.169-.835 0-.167.167-.167.334-.167.167.167 0-.167-.334-.501-1.837-1.67-4.008-5.511-4.676-7.014-.501-1.67-.501-2.004 0-5.177.334-2.338.167-3.674 1.002-8.016l3.34-7.682c.334-.501.501-.835.668-.835.501 0 5.177-8.016 5.344-9.018 2.338-2.505-.501-1.837-1.837 0-.334.167-.835.835-1.503 1.503-.334.501-1.503 1.67-2.171 2.672-1.169 1.67-1.503 2.171-2.171 1.837-.334-.167-1.169 1.169-1.336 1.837.167.501-.501 1.503-1.169 1.837-.167.167 0 .334.334.835l-3.006 6.012c-1.336 4.175-2.505 7.348-2.338 10.02-.167 1.169-.167 4.175-.167 4.342-.334.334-.167 5.678.167 6.847.167.835 1.169 2.004 1.336 2.839s.334 1.503.501 1.67c0 0 .167.334.167.501-.167.334.334 1.336.835 2.505 1.336 2.672 1.67 3.006 1.67 3.507.167.668 2.338 2.672 3.841 3.841 2.338 1.336 3.006 3.34 3.006 3.507s.501.334 1.169.501c.668.334 2.004.835 3.006 1.336.835.501 2.505 1.002 3.173 1.002.835.167 2.672.501 4.008 1.002 2.004.501 3.34.668 6.346.668M7.348 120.073l.334-.501c.167 0 .334 0 .334.334-.167.501-.334.668-.668.167m1.837 35.404c.334-.167 2.338.835 2.338 1.169-.167.334-.167.334-1.336-.167-1.169-.668-1.169-.668-1.002-1.002m.835-2.171c.167-.167.334-.334.501-.334s.334.167.167.334c0 .167-.167.334-.334.334s-.334-.167-.334-.334m1.503 3.841c.167-.501.167-.501 1.503 0 .835.167 1.169.668 1.169 1.002 0 .835-.167.835-1.67 0-.334-.334-1.002-.835-1.002-1.002m1.503-2.505c0-.167.167-.167.334.167q.2505.25 0 .501c-.167.167-.501-.167-.334-.668m1.837 4.008q0-.752 1.002 0c.167.334.334.501.334.668-.167.167-.334 0-.501-.167 0-.167-.167-.334-.668-.167-.167 0-.334 0-.167-.334m2.171 3.507c0-.167.334-.167.668-.167.501 0 .835 0 .835.167s-.334.334-.835.334c-.334 0-.668-.167-.668-.334m.501-2.505c0-.334.835-.501 1.503-.167 1.336.501 5.678 1.002 9.853 1.169 2.505.167 11.857-.167 12.024-.334s1.002-.501 2.171-.501c1.837-.167 1.837 0 1.67.334s-.668.501-1.002.501l-1.002.167.835.334c.501.167.835.334.835.501-.167.167.167.167.668-.167.334-.334.668-.501.835-.334s.501 0 .835 0c.501-.501 2.505-.668 3.006-.501.167 0 .167.334.167.501 0 .334 0 .334-.334.334-.167-.167-.501 0-.835.334-.334.501-.668.668-1.503.501-.668 0-1.503.167-2.004.334-.334.167-1.002.334-1.336.334l-3.34.334c-1.67.334-3.006.668-3.173.835 0 .167-.334.167-.668 0-.501-.334-2.839-.501-3.34-.334-.167.167-.334.167-.501-.167s-.334-.501-.167-1.336c0-.334-.167-.334-.835-.167-.501 0-1.002 0-1.002-.167s0-.334-.501-.334c-.334 0-.668.167-.668.334s-.334.167-.668-.167c-.501-.668-.501-.668-.501 0 .167.668 0 .835-.334.668-.501-.167-.835 0-1.169.334-.334.501-.334.334-.334-.167.167-.668 0-.835-1.002-.501-.835 0-1.336 0-1.503-.167 0-.501-1.336-.501-2.004.167-.835.501-1.169.501-.668-.167.334-.668-.167-1.002-.501-.334-.334.167-.501.167-.668-.167s-.501-.501-.668-.501c-.334.167-2.338-1.002-2.171-1.336m12.358 3.006c.167-.334.167-.334.334-.167-.167.167-.167.501-.167.668-.167 0-.167-.167-.167-.501m2.505-5.344c0 .167.167.334.334.334s.334-.167.334-.167c0-.167-.167-.334-.334-.334-.167-.167-.334 0-.334.167m1.002 5.177c-.167.501 0 .501.501.501.501-.167.501-.334.334-.668-.668-.501-.835-.501-.835.167m1.002-.167c.167 0 .334-.167.334-.334.167-.167.334-.334.167-.334s-.501.167-.501.334zm1.169 0c-.167.501.835.167 1.002-.334.334-.501.167-.668-.334-.668s-.501 0-.167.334c.167.167.167.334-.167.334-.167 0-.334 0-.334.334m2.171-5.01c.501.334 2.338.167 2.338-.167 0 0-.501-.167-1.336-.167s-1.336.167-1.002.334m3.841 4.008c.334.167.668.167.835 0 .334-.167-.334-.668-.835-.668-.668 0-.668.668 0 .668m.835 3.173c-.334-.501-.167-.501.501-.167.334.167.167.334 0 .501-.167 0-.501 0-.501-.334m1.67-7.515c.167.334 1.002.334 1.169 0 .334-.167.501-.334.835-.167s1.336-.167 1.336-.501c0-.167-.334-.167-.668-.167-.501.167-1.67.334-2.505.501-.167 0-.167.167-.167.334m1.169 2.839c.167-.167.334-.334.668-.334.167 0 .334.167.167.334 0 .167-.167.334-.334.334-.334 0-.501-.167-.501-.334m1.67-.334c0-.334 1.169-.501 3.006-.835.167 0 .501.167.334.334 0 .167-.334.501-1.002.501-1.837.334-2.505.334-2.338 0m1.67 3.674.334-.334s.167.167.167.334-.167.334-.334.334-.334-.167-.167-.334m2.004-2.672c.334-.501 2.004-.668 2.004 0 0 .167-.501.501-.835.835-1.503.501-1.67.334-1.169-.835m1.002-2.004c.501-.334 2.839-.668 2.672-.334 0 .167 0 .334-.167.334-1.002.334-2.672.334-2.505 0m1.837 1.67c-.167-.167.167-.501.334-.501.167-.167.334 0 .501 0-.167.167-.167.501-.334.501q-.2505.25-.501 0m1.169-2.171c.167-.334 2.839-1.336 4.008-1.503 1.002-.167 1.169 0 .835.334-.334.167-.668.334-.835.334-.334-.167-.501 0-.668.167 0 .167-.501.334-1.002.334s-1.002 0-1.336.334c-.167.334-1.002.334-1.002 0m.167 1.503c.334-.334 1.169-.501 1.169-.167 0 .167-.167.334-.668.668-.501.501-1.002 0-.501-.501m1.503-.167c0-.334.334-.501.501-.334.167 0 .501 0 1.002-.334.334-.334 3.507-1.336 4.175-1.336.167 0 .167.167.167.334-.167.334-1.002.668-1.837 1.002-1.002.167-2.505.501-3.006.835-.835.167-1.002.167-1.002-.167m.668-4.008c.167-.668 1.002-1.002 3.173-1.336.835-.167 1.837-.334 2.004-.501.334-.167.334-.167.334.167s-.167.501-.334.334c-.167 0-.167 0-.334.167 0 .167-.668.501-1.503.668-2.839.835-3.34 1.002-3.34.501m4.509-32.064c.334-.167 2.338.835 2.338 1.169s0 .334-1.336-.167c-1.169-.668-1.169-.668-1.002-1.002m1.503 34.903c-.501-.668-.167-1.002 1.169-1.503.668-.334 1.336-.501 1.336-.334 0 .334-1.169.835-1.67.668-.167 0 0 .167.167.334s.334.501.167.835c0 .501-.668.501-1.169 0m.835-33.233c.167-.501.167-.501 1.503 0 .835.167 7.014 1.503 8.851 4.342 0 .668-.167.835-.668.501-.167 0-.835-.334-2.171-1.002-.501-.167-1.002-1.002-1.336-1.169-2.338-1.002-4.843-1.503-5.177-1.67-.334-.334-1.002-.835-1.002-1.002m2.004 31.396c.167-.334 1.002-.668 1.336-.334.167 0 .334-.167.334-.334 0-.334.167-.501.334-.501.501 0 .167 1.169-.334 1.336-.835.334-1.67.167-1.67-.167m3.34-.835c0-.167.334-.501.668-.835.501-.334 1.002-.835 1.169-1.169.334-.334.668-.501.835-.501.668 0 .668 0-.334.835-.501.501-.668 1.002-.668 1.169-.167.334-.334.501-.501.334 0-.167-.334 0-.501.167-.334.167-.501.167-.668 0m1.503-26.052c.501 0 2.004 1.169 1.837 1.503-.167.167-.167.334-.334 0-1.002-.334-2.171-1.336-1.503-1.503m1.336 25.05c0-.334.835-.835 1.169-.835.167 0 .167.167-.167.501-.334.668-1.002.835-1.002.334m1.002-23.38c0-.334 2.505.501 3.507 1.002.668.501.835.835.167.835-.167 0-.501 0-.501-.334-.334-.167-.501-.167-.668-.167-.167.167-.668 0-1.002-.501-.167-.167-.668-.501-1.002-.334-.167.167-.835-.501-.501-.501m2.171 20.207c0-.334 0-.668.334-1.002.167-.501.668.668.501.835-.668.668-.668.668-.835.167m5.01-12.191c.167-.167 0-.668 0-1.002s0-.501.334-.167c0 .167.167.668 0 1.002-.167.167-.334.334-.334.167m30.895-4.509c3.674 1.002 8.35.835 9.853-.167.835-.334 1.336-.167 2.171-.668.835-.334 1.837-.501 2.171-.501 1.002 0 3.34-1.503 4.342-2.839.501-.501 1.002-1.002 1.336-1.002s.668-.167.835-.501.668-.334 1.002-.334c.501.167 1.002-.167 1.336-.501 2.338-2.839 3.674-3.841 4.008-4.342.501-.501 1.169-1.169 1.67-1.503s1.002-1.002 1.169-1.336c.167-.835 1.503-2.839 2.004-2.839.167 0 .167-.501.167-1.002 0-.835.334-1.336 1.002-1.67.334-.167.835-.668 1.002-1.002.167-.167.668-.668 1.002-1.169.668-.334.835-.835.668-1.336s0-1.169.668-1.67c.501-.501.835-1.002.668-1.169 0-.167.167-.668.501-1.169.334-.334.501-.835.501-1.002-.167-.334 0-.501.334-.835.167-.167.334-.835.334-1.336 0-.668.167-1.336.501-1.67s.501-.835.501-1.336c-.167-.334-.167-1.169.167-1.67.668-1.837.668-3.507.167-5.344-.334-.835-.334-2.004-.334-2.672.334-1.169.167-1.336-1.002-3.507-1.503-3.006-2.338-4.175-3.507-5.01-.501-.334-1.002-.835-1.002-1.002-.334-.668-2.004-2.672-4.509-3.841-2.839-1.336-5.177-1.002-8.183-2.004-2.171-1.002-3.006-1.002-5.177-1.002-1.837.167-2.672.501-4.342 1.336-2.672 1.503-8.183 4.843-10.02 7.348-1.002 1.169-2.672 2.839-3.507 3.34q-.752.501-1.002 2.004c-.167 1.169-.501 1.503-.835 1.503-.334-.167-.835.334-1.336 1.002-.835.835-1.837 1.503-.501 3.507l1.002 1.503c1.336 1.002 2.171 2.505 3.006 3.173 1.336 1.002 1.67 1.169 2.839 1.169 1.503 0 2.505-.501 3.507-2.171.501-.668.501-1.169 1.169-1.336.334 0 2.171-1.67 2.505-2.338.334-.501 5.678-6.012 6.847-6.847.167-.334.835-.835 1.336-1.336 3.173-2.672 4.008-4.342 9.853-4.509 2.839.334 4.843 2.839 4.175 6.847-.167 1.169-.334 2.171-.167 2.171 0 .501-1.336 4.008-2.171 6.179-.334 1.002-.668 2.004-.501 2.171l-.668 2.171c-.501 2.338-1.67 2.171-2.672 3.507-.501.835-.167 2.338-.668 2.004-.668-.501-2.338 2.672-3.507 4.175-.835 1.169-1.503 1.67-2.839 2.839-.668.668-4.008 4.008-4.843 4.509-.501.167-1.169.501-1.169.668-.668 1.503-6.179 4.175-9.018 5.177-1.67.668-2.672.835-5.845.668-4.008 0-8.851-3.006-11.356-5.344-4.342-3.674-4.342-1.837-2.672.668 1.169 1.67 4.676 5.511 5.845 6.513l4.843 4.175c1.169 1.002 2.839 1.67 6.346 2.505m-.501-4.509c.334-.501 3.674-1.336 5.511-1.169.835.167 1.503 0 2.171-.668.668-.334 1.336-.668 1.67-.668s.668-.334.835-.668c.334-1.002.668-.835.835.167.167.835.167 1.002-.835 1.336-1.169.334-1.503 1.336-.501 1.002.334 0 .835-.334.835-.501.167-.167.501-.334.835-.334.334-.167.668-.334.835-.668.334-.501.501-.501.835.167.334.334.167.334-.167.334-.167-.167-.501 0-.334.334 0 .501-.334.668-.835.668-.334 0-.835.167-1.002.501-.167.167-.501.334-.835.334-.167 0-.668 0-.835.167-.334.334-.334.167-.334-.334 0-.835 0-.835-1.336-.167-.835.334-1.67.501-2.505.334-1.336-.167-3.34.167-3.173.835s-1.002.668-1.503.167c-.167-.167-.501-.668-.167-1.169m7.181-42.418c0-.167.167-.334.334-.501.334 0 .501 0 .501.167.167.167 0 .334-.334.501-.167 0-.334 0-.501-.167m1.002-1.002c-.167-.501 1.503-2.004 2.338-2.338.501-.167.334 0-1.336 2.004-.668.835-.835.835-1.002.334m.167 39.579c-.668 0-.334-.501.835-1.002.501-.334 1.002-.668 1.169-.668.334-.167.167 0 .167.167-.167.334-.334.501-.835.835-.668.501-1.169.668-1.336.668m2.672-45.424c.167-.167.334-.501.668-.501s.334.167.167.501q-.251.501-.501.501c-.167 0-.334-.167-.334-.501m1.336 45.758c-.501-.835-.334-1.169.835-1.67.501-.167.835-.334.835-.501s.334-.501.835-.668c.334-.167.334 1.503 2.839-2.338.334-.668.835-1.169 1.169-1.336.334 0 1.002-.501 1.336-1.002l1.837-2.004c1.336-1.336 2.672-3.34 2.505-3.841-.167-.334 1.169-2.171 1.67-2.171.835-.334.835-1.002 1.503-1.67.835-1.336 1.336-1.67 1.503-1.336.334.167.835-.334 1.837-1.837.835-1.503 1.336-2.004 1.503-1.67.167.167 0 .668-.334.835s-.501.501-.501.668c.167.334 0 .668-.167 1.002-.334.334-.334.835-.167 1.169.167.501.167.668-.167.668-.501 0-1.503 1.336-2.505 3.34-.334.501-.835 1.169-1.002 1.169-.334.167-.501.501-.501.835.167.501-2.171 4.008-2.505 3.674s.501-2.505 1.336-3.34c.501-.501.668-1.002.501-1.002q-.25 0-.501.501c-.167.334-.334.334-.501.334s-.501.334-.835 1.002c-.334.501-.835 1.002-1.002 1.002-.334 0-1.002.835-1.837 2.004-.668 1.002-1.336 1.837-1.503 1.837s-.334.334-.334.668c0 .501-.334.835-.668.835s-.668.334-.835.668c-.167.835.167.835.835.167.167-.167.835-.501 1.336-.501h1.002l-1.002.835c-1.169 1.002-2.672 1.837-2.839 1.503-.167 0-.167-.167 0-.334.501-.167.334-1.002 0-1.002-.501 0-1.169.835-1.002 1.336.167.334.334.501.501.334l.167.334c0 .501-2.505 2.171-3.006 2.004-.167-.167-.501-.501-.501-.668 0-.334-.167-.501-.334-.501s-.334.334-.501.668l-.501.668zm.167-43.086c-.668.334 0-.835.167-1.169-.167-.334 1.169-2.004 1.67-2.338s1.002 0 1.837-.501 1.837-.835 3.173-1.336 5.01.501 5.344.668 1.002.334 1.503.501c1.67.501-.167.668-1.67 0-.835-.334-2.171-.501-3.006-.501-1.837 0-3.006 1.336-3.507 1.336-2.505.167-2.505 1.169-4.509 2.338-.501.334-.334.668-1.002 1.002m1.837 42.752c0 .167.167.334.334.334s.334-.167.334-.334c.167-.167 0-.334-.334-.334s-.501.167-.334.334m.668-1.002c0 .167 0 .334.167.334s.167-.167.167-.334c.167-.167 0-.334-.167-.334s-.334.167-.167.334m.668-.668c.167.501.668.501.835.167 0-.167-.167-.501-.501-.501-.334-.167-.501 0-.334.334m6.847-4.342c0-.167 0-.334.167-.501s.334 0 .334.167 0 .334-.167.501-.334 0-.334-.167m1.002-.668c-.334 0-.167-1.169.167-1.336.501-.501.835.167.501.668-.334.334-.501.668-.668.668m3.507 6.847c0 .334.835.167 1.169-.334.167-.334.835-1.169 1.67-1.837 1.169-1.169 2.505-3.006 2.505-3.173-.167-.334-.501-.167-1.169.501l-1.837 1.837c-1.336 1.336-2.505 2.672-2.338 3.006m5.678-6.847c0 1.002.835.501 1.336 0 .334-.501.835-1.503.334-1.503-.835-.835-2.171.501-1.67 1.503m2.672-26.553c-.668-1.336-.501-1.503.334-.501.334.668.501 1.002.334 1.169s-.334 0-.668-.668m.835 1.837c.167-.668.167-.668.501.167.167.501 0 .835-.167.835-.334 0-.334-.167-.334-1.002m20.04 40.08c1.503.501 2.338.501 2.672 0 .501-.668 4.008-3.006 3.674-3.507-.334-.334-.501-3.34-.167-3.674 0-.167.334-1.837.501-3.674.167-1.67.501-3.674.668-4.175s.334-1.837.501-3.173.835-2.839 1.002-3.507c.167-.501.501-1.67.501-2.672-.167-.835-1.002-1.67-.835-1.67 1.169-.167 1.169-.501 0-.668 0-.334 1.169-.835 1.336-1.169.668-.668 1.169-3.507.668-3.841-.668-.334-.501-.668.167-1.002.501 0 .668-.334.668-1.002 0-.501.167-1.002.334-1.169s.334-.835.334-1.503c.167-.668-.167-2.171 0-3.34.501-1.503.501-2.171.334-2.338-.167 0 0-.334.334-.835.501-.501.835-1.002.835-1.336v-2.004c0-1.503 1.002-1.67.167-1.503-.501 0-1.002 0-1.002-.167-.334-.167 0-.334.334-.334 1.002.167.668 0 1.002-.835.334-1.002.668-5.01.501-6.513 0-.334.167-.668.334-.668s.501-.501-.167-1.336c1.336-.835 1.67-2.004 1.503-3.841-.167-2.338 0-3.006.501-4.676.334-.501.334-1.503.501-2.004.167-.668.334-2.505.501-4.175.334-1.837.668-4.342.668-5.678.167-1.336.501-2.672.501-2.839.167-.167.334-.668.167-1.169.167-2.004 2.505-16.7 3.173-18.036l.334-1.336-.501-1.837c-.501-.334-1.336-1.002-1.336-1.169-.167-.167-1.336.334-2.171 0-1.503-.668-2.004-.668-7.181-.501-3.173.167-3.507.501-2.672 2.505.501 1.336-1.67 15.698-2.338 18.704-.167.835-.334 1.67-.334 2.171.334.334 0 1.336-.167 2.505l-.334 1.837c0 .167 0 1.336-.334 2.505-.167 1.336-.501 2.839-.334 3.507 0 .501-.167 1.67-.167 2.505-.334.835-.334 1.837-.334 2.171 0 .501-.167 1.336-.501 1.837-.334.835-.167 2.004.501 2.672.501.501 0 2.004-.668 1.837s-.668 0-.167 1.002c.501 1.336.835.835 1.336-1.837.167-1.336.334-2.672.501-2.839.668-2.171 1.169-4.843 1.336-8.851.334-2.672.835-3.841 1.169-3.34 0 0-.167 1.336-.167 2.672-.334 1.503-.334 3.006-.501 3.34v1.336c-.167.501-.167 1.837-.501 3.173-.835 6.179-1.503 10.02-1.837 12.358l-.334 2.839c.167 0 .334.334.167.668-.167.167-.501.835-.668 1.503.167.501.167.668 0 .835s-.334 1.336-.501 2.505c-.167 2.004-.835 4.676-1.336 5.845-.167.167.167 1.837-.167 3.34-.334 1.67-.501 3.34-.668 3.674 0 .501-.334 2.004-.668 3.34-.167 1.503-.501 2.672-.501 2.839-.167.167-.668 1.67-1.002 3.34-.167 1.67-1.002 4.509-1.503 6.179l-.835 4.843c-.334 1.503-.668 2.338-1.002 1.336-.167-.167 0-1.67.167-3.006.501-2.171.501-2.505 0-2.839s-.501-.668.167-.835c.334-.167.668-.668.835-1.67 0-.835.668-2.505 1.002-3.507.668-1.837 1.169-6.179.668-5.344 0 .167-.334.334-.501.167-.334-.167-1.336 2.505-1.503 4.342 0 .334-.167 1.002-.501 1.169-.167.334-.167.668-.167 1.67.668 1.503.668 2.004-.167 2.171-.668.334-.668.501-.835 2.839 0 1.67-.167 2.672-.501 3.173-.167.167-.501 1.002-.668 1.67-.334 2.171-1.336 5.177-1.837 5.177-.167 0-.501.167-.501.501-.334.835 1.336 2.505 2.505 2.672.334.167 1.002.334 1.503.334.501.167 1.002.167 1.169.167 0 0 .501.334.835.668s.835.501 1.002.334c.167 0 .835 0 1.503.167m-4.342-5.678c-.501.334-.501-.167 0-.835.167-.334.167-.334.167.167 0 .334 0 .501-.167.668m0-1.837c0-.334 0-.501.167-.501s.334.167.334.501c0 .167-.167.501-.334.501s-.167-.334-.167-.501m2.338-.167c0-.167.167-.334.334-.334s.334-.167.167-.334c-.167-.334 0-.668.167-.668.167-.167.167-.668.167-1.169-.167-.501-.167-.835.167-.835.167 0 .334-.334.334-.501 0-.334-.167-.501-.334-.334s-.334 0-.334-.334c0-.167.167-.501.334-.668.167 0 .167-.334.167-.501-.167-.501.501-2.839 1.002-3.006.334 0 .334.167.167 1.002 0 .501-.334 1.002-.501 1.169-.334.167-.334.668.334 1.169.334.167.501.501.167.668-.167 0-.501 1.336-.835 2.505q-.501 2.505-1.002 2.505c-.167 0-.501-.167-.501-.334m.501-22.211c-.334 1.336-.167 1.503.167 1.503.668 0 1.002-.668 1.002-1.837 0-.501.167-1.503.501-2.338.167-.835.501-2.004.501-2.505 0-.835-.167-1.002-.668-.334-.334.334-.668.668-.668 1.002 0 .167-.167.334-.167.334-.167 0-.334.668-.334 1.336s-.167 2.004-.334 2.839m1.503 11.523c0-.835.835-1.503 1.169-2.004.167-.668.167-.668 0 1.169 0 1.169-.167 1.837-.334 1.837s-.334-.334-.167-.835.167-1.002 0-1.002c-.334 0-.501.501-.501 1.002-.167 1.002-.167 1.002-.167-.167m.167-21.71c.167.501.167.334.501-.167.501-.668 2.338-7.515 2.004-7.682 0 0-1.002-.167-1.002 0 0 .501-.167 1.837-.334 2.171-.668 2.171-1.169 5.511-1.169 5.678m.668 17.535c.167-2.672 1.002-4.342 1.67-4.342.668.167.668 2.171-.167 3.006-.334.334-.835.835-.835 1.002 0 .334-.167.835-.167 1.002-.334 1.002-.668.501-.501-.668m1.002-26.553c0 .167.334.167.668-.167.501 0 .835-.334.835-.668-.167-.501-.167-.501-.835 0-.334.334-.668.668-.668.835m.167-1.837c-.167.501-.167.501.835-.167.501-.334 1.002-4.676 1.002-5.01s-.167-.501-.334-.334-.334.334-.334.668c0 .167-.501 2.338-.668 2.338-.334.167-.501 2.171-.501 2.505m.501 20.875c.167-1.002.167-2.004.167-2.004-.167-.167 0-.501.167-1.002.501-1.002 1.169-3.674.668-5.845.167-2.338 1.002-4.843 1.67-4.676.167 0 .501-.167.501-.334.167-.334 0-.334-.167-.167-.501.167-.668-.334-.334-1.169.167-.501.334-.668.334-.167 0 .668.668.668.668 0 0-.334 0-.835.167-.835.501-.334.668.835.334 1.837-.334.501-.501 1.336-.334 1.837 0 .501 0 1.002-.167 1.336-.334.167-.334.501-.167.668 0 .167-.167 1.002-.668 2.004.334 1.002-.167 1.837-.167 2.171 0 .167 0 .501-.167.668-.501.334-.334 2.004.167 1.837.167 0 .334 0 .167.167 0 .167-.334.334-.668.167-.501 0-.501 0-.501.501.167 1.169-.334 3.507-.835 3.507-.167-.167-.334 0-.167.835.167.501 0 .835 0 .668-.167 0-.334 0-.501.334-.334 1.002-.501-.501-.167-2.338m3.006-17.368c-.334-.501.167-1.336.334-1.002.167.167 0 .668.167.835-.501 1.002-.501 1.002-.501.167m.668-3.34c0-.167.167-.334.334-.334s.334.167.167.334c0 .167-.167.334-.334.334 0 0-.167-.167-.167-.334m.167 3.006c0-.167.167-.167.334-.167s.668 0 .668.334c0 .501-.167.835-.501.835s-.334-.167-.334-.501c.167-.334-.167-.334-.167-.501m1.169-29.392c0-.167.167-.501.334-.668.167 0 .334.167.334.501s-.167.668-.334.668-.334-.167-.334-.501m28.39 76.82c3.674 1.002 8.35.835 9.853-.167.835-.334 1.336-.167 2.171-.668.835-.334 1.837-.501 2.171-.501 1.002 0 3.34-1.503 4.342-2.839.501-.501 1.002-1.002 1.336-1.002s.668-.167.835-.501.668-.334 1.002-.334c.501.167 1.002-.167 1.336-.501 2.338-2.839 3.674-3.841 4.008-4.342.501-.501 1.169-1.169 1.67-1.503s1.002-1.002 1.169-1.336c.167-.835 1.503-2.839 2.004-2.839.167 0 .167-.501.167-1.002 0-.835.334-1.336 1.002-1.67.334-.167.835-.668 1.002-1.002.167-.167.668-.668 1.002-1.169.668-.334.835-.835.668-1.336s0-1.169.668-1.67c.501-.501.835-1.002.668-1.169 0-.167.167-.668.501-1.169.334-.334.501-.835.501-1.002-.167-.334 0-.501.334-.835.167-.167.334-.835.334-1.336 0-.668.167-1.336.501-1.67s.501-.835.501-1.336c-.167-.334-.167-1.169.167-1.67.668-1.837.668-3.507.167-5.344-.334-.835-.334-2.004-.334-2.672.334-1.169.167-1.336-1.002-3.507-1.503-3.006-2.338-4.175-3.507-5.01-.501-.334-1.002-.835-1.002-1.002-.334-.668-2.004-2.672-4.509-3.841-2.839-1.336-5.177-1.002-8.183-2.004-2.171-1.002-3.006-1.002-5.177-1.002-1.837.167-2.672.501-4.342 1.336-2.672 1.503-8.183 4.843-10.02 7.348-1.002 1.169-2.672 2.839-3.507 3.34q-.752.501-1.002 2.004c-.167 1.169-.501 1.503-.835 1.503-.334-.167-.835.334-1.336 1.002-.835.835-1.837 1.503-.501 3.507l1.002 1.503c1.336 1.002 2.171 2.505 3.006 3.173 1.336 1.002 1.67 1.169 2.839 1.169 1.503 0 2.505-.501 3.507-2.171.501-.668.501-1.169 1.169-1.336.334 0 2.171-1.67 2.505-2.338.334-.501 5.678-6.012 6.847-6.847.167-.334.835-.835 1.336-1.336 3.173-2.672 4.008-4.342 9.853-4.509 2.839.334 4.843 2.839 4.175 6.847-.167 1.169-.334 2.171-.167 2.171 0 .501-1.336 4.008-2.171 6.179-.334 1.002-.668 2.004-.501 2.171l-.668 2.171c-.501 2.338-1.67 2.171-2.672 3.507-.501.835-.167 2.338-.668 2.004-.668-.501-2.338 2.672-3.507 4.175-.835 1.169-1.503 1.67-2.839 2.839-.668.668-4.008 4.008-4.843 4.509-.501.167-1.169.501-1.169.668-.668 1.503-6.179 4.175-9.018 5.177-1.67.668-2.672.835-5.845.668-4.008 0-8.851-3.006-11.356-5.344-4.342-3.674-4.342-1.837-2.672.668 1.169 1.67 4.676 5.511 5.845 6.513l4.843 4.175c1.169 1.002 2.839 1.67 6.346 2.505m-.501-4.509c.334-.501 3.674-1.336 5.511-1.169.835.167 1.503 0 2.171-.668.668-.334 1.336-.668 1.67-.668s.668-.334.835-.668c.334-1.002.668-.835.835.167.167.835.167 1.002-.835 1.336-1.169.334-1.503 1.336-.501 1.002.334 0 .835-.334.835-.501.167-.167.501-.334.835-.334.334-.167.668-.334.835-.668.334-.501.501-.501.835.167.334.334.167.334-.167.334-.167-.167-.501 0-.334.334 0 .501-.334.668-.835.668-.334 0-.835.167-1.002.501-.167.167-.501.334-.835.334-.167 0-.668 0-.835.167-.334.334-.334.167-.334-.334 0-.835 0-.835-1.336-.167-.835.334-1.67.501-2.505.334-1.336-.167-3.34.167-3.173.835s-1.002.668-1.503.167c-.167-.167-.501-.668-.167-1.169m7.181-42.418c0-.167.167-.334.334-.501.334 0 .501 0 .501.167.167.167 0 .334-.334.501-.167 0-.334 0-.501-.167m1.002-1.002c-.167-.501 1.503-2.004 2.338-2.338.501-.167.334 0-1.336 2.004-.668.835-.835.835-1.002.334m.167 39.579c-.668 0-.334-.501.835-1.002.501-.334 1.002-.668 1.169-.668.334-.167.167 0 .167.167-.167.334-.334.501-.835.835-.668.501-1.169.668-1.336.668m2.672-45.424c.167-.167.334-.501.668-.501s.334.167.167.501q-.251.501-.501.501c-.167 0-.334-.167-.334-.501m1.336 45.758c-.501-.835-.334-1.169.835-1.67.501-.167.835-.334.835-.501s.334-.501.835-.668c.334-.167.334 1.503 2.839-2.338.334-.668.835-1.169 1.169-1.336.334 0 1.002-.501 1.336-1.002l1.837-2.004c1.336-1.336 2.672-3.34 2.505-3.841-.167-.334 1.169-2.171 1.67-2.171.835-.334.835-1.002 1.503-1.67.835-1.336 1.336-1.67 1.503-1.336.334.167.835-.334 1.837-1.837.835-1.503 1.336-2.004 1.503-1.67.167.167 0 .668-.334.835s-.501.501-.501.668c.167.334 0 .668-.167 1.002-.334.334-.334.835-.167 1.169.167.501.167.668-.167.668-.501 0-1.503 1.336-2.505 3.34-.334.501-.835 1.169-1.002 1.169-.334.167-.501.501-.501.835.167.501-2.171 4.008-2.505 3.674s.501-2.505 1.336-3.34c.501-.501.668-1.002.501-1.002q-.25 0-.501.501c-.167.334-.334.334-.501.334s-.501.334-.835 1.002c-.334.501-.835 1.002-1.002 1.002-.334 0-1.002.835-1.837 2.004-.668 1.002-1.336 1.837-1.503 1.837s-.334.334-.334.668c0 .501-.334.835-.668.835s-.668.334-.835.668c-.167.835.167.835.835.167.167-.167.835-.501 1.336-.501h1.002l-1.002.835c-1.169 1.002-2.672 1.837-2.839 1.503-.167 0-.167-.167 0-.334.501-.167.334-1.002 0-1.002-.501 0-1.169.835-1.002 1.336.167.334.334.501.501.334l.167.334c0 .501-2.505 2.171-3.006 2.004-.167-.167-.501-.501-.501-.668 0-.334-.167-.501-.334-.501s-.334.334-.501.668l-.501.668zm.167-43.086c-.668.334 0-.835.167-1.169-.167-.334 1.169-2.004 1.67-2.338s1.002 0 1.837-.501 1.837-.835 3.173-1.336 5.01.501 5.344.668 1.002.334 1.503.501c1.67.501-.167.668-1.67 0-.835-.334-2.171-.501-3.006-.501-1.837 0-3.006 1.336-3.507 1.336-2.505.167-2.505 1.169-4.509 2.338-.501.334-.334.668-1.002 1.002m1.837 42.752c0 .167.167.334.334.334s.334-.167.334-.334c.167-.167 0-.334-.334-.334s-.501.167-.334.334m.668-1.002c0 .167 0 .334.167.334s.167-.167.167-.334c.167-.167 0-.334-.167-.334s-.334.167-.167.334m.668-.668c.167.501.668.501.835.167 0-.167-.167-.501-.501-.501-.334-.167-.501 0-.334.334m6.847-4.342c0-.167 0-.334.167-.501s.334 0 .334.167 0 .334-.167.501-.334 0-.334-.167m1.002-.668c-.334 0-.167-1.169.167-1.336.501-.501.835.167.501.668-.334.334-.501.668-.668.668m3.507 6.847c0 .334.835.167 1.169-.334.167-.334.835-1.169 1.67-1.837 1.169-1.169 2.505-3.006 2.505-3.173-.167-.334-.501-.167-1.169.501l-1.837 1.837c-1.336 1.336-2.505 2.672-2.338 3.006m5.678-6.847c0 1.002.835.501 1.336 0 .334-.501.835-1.503.334-1.503-.835-.835-2.171.501-1.67 1.503m2.672-26.553c-.668-1.336-.501-1.503.334-.501.334.668.501 1.002.334 1.169s-.334 0-.668-.668m.835 1.837c.167-.668.167-.668.501.167.167.501 0 .835-.167.835-.334 0-.334-.167-.334-1.002m20.04 40.08c1.503.501 2.338.501 2.672 0 .501-.668 4.008-3.006 3.674-3.507-.334-.334-.501-3.34-.167-3.674 0-.167.334-1.837.501-3.674.167-1.67.501-3.674.668-4.175s.334-1.837.501-3.173.835-2.839 1.002-3.507c.167-.501.501-1.67.501-2.672-.167-.835-1.002-1.67-.835-1.67 1.169-.167 1.169-.501 0-.668 0-.334 1.169-.835 1.336-1.169.668-.668 1.169-3.507.668-3.841-.668-.334-.501-.668.167-1.002.501 0 .668-.334.668-1.002 0-.501.167-1.002.334-1.169s.334-.835.334-1.503c.167-.668-.167-2.171 0-3.34.501-1.503.501-2.171.334-2.338-.167 0 0-.334.334-.835.501-.501.835-1.002.835-1.336v-2.004c0-1.503 1.002-1.67.167-1.503-.501 0-1.002 0-1.002-.167-.334-.167 0-.334.334-.334 1.002.167.668 0 1.002-.835.334-1.002.668-5.01.501-6.513 0-.334.167-.668.334-.668s.501-.501-.167-1.336c1.336-.835 1.67-2.004 1.503-3.841-.167-2.338 0-3.006.501-4.676.334-.501.334-1.503.501-2.004.167-.668.334-2.505.501-4.175.334-1.837.668-4.342.668-5.678.167-1.336.501-2.672.501-2.839.167-.167.334-.668.167-1.169.167-2.004 2.505-16.7 3.173-18.036l.334-1.336-.501-1.837c-.501-.334-1.336-1.002-1.336-1.169-.167-.167-1.336.334-2.171 0-1.503-.668-2.004-.668-7.181-.501-3.173.167-3.507.501-2.672 2.505.501 1.336-1.67 15.698-2.338 18.704-.167.835-.334 1.67-.334 2.171.334.334 0 1.336-.167 2.505l-.334 1.837c0 .167 0 1.336-.334 2.505-.167 1.336-.501 2.839-.334 3.507 0 .501-.167 1.67-.167 2.505-.334.835-.334 1.837-.334 2.171 0 .501-.167 1.336-.501 1.837-.334.835-.167 2.004.501 2.672.501.501 0 2.004-.668 1.837s-.668 0-.167 1.002c.501 1.336.835.835 1.336-1.837.167-1.336.334-2.672.501-2.839.668-2.171 1.169-4.843 1.336-8.851.334-2.672.835-3.841 1.169-3.34 0 0-.167 1.336-.167 2.672-.334 1.503-.334 3.006-.501 3.34v1.336c-.167.501-.167 1.837-.501 3.173-.835 6.179-1.503 10.02-1.837 12.358l-.334 2.839c.167 0 .334.334.167.668-.167.167-.501.835-.668 1.503.167.501.167.668 0 .835s-.334 1.336-.501 2.505c-.167 2.004-.835 4.676-1.336 5.845-.167.167.167 1.837-.167 3.34-.334 1.67-.501 3.34-.668 3.674 0 .501-.334 2.004-.668 3.34-.167 1.503-.501 2.672-.501 2.839-.167.167-.668 1.67-1.002 3.34-.167 1.67-1.002 4.509-1.503 6.179l-.835 4.843c-.334 1.503-.668 2.338-1.002 1.336-.167-.167 0-1.67.167-3.006.501-2.171.501-2.505 0-2.839s-.501-.668.167-.835c.334-.167.668-.668.835-1.67 0-.835.668-2.505 1.002-3.507.668-1.837 1.169-6.179.668-5.344 0 .167-.334.334-.501.167-.334-.167-1.336 2.505-1.503 4.342 0 .334-.167 1.002-.501 1.169-.167.334-.167.668-.167 1.67.668 1.503.668 2.004-.167 2.171-.668.334-.668.501-.835 2.839 0 1.67-.167 2.672-.501 3.173-.167.167-.501 1.002-.668 1.67-.334 2.171-1.336 5.177-1.837 5.177-.167 0-.501.167-.501.501-.334.835 1.336 2.505 2.505 2.672.334.167 1.002.334 1.503.334.501.167 1.002.167 1.169.167 0 0 .501.334.835.668s.835.501 1.002.334c.167 0 .835 0 1.503.167m-4.342-5.678c-.501.334-.501-.167 0-.835.167-.334.167-.334.167.167 0 .334 0 .501-.167.668m0-1.837c0-.334 0-.501.167-.501s.334.167.334.501c0 .167-.167.501-.334.501s-.167-.334-.167-.501m2.338-.167c0-.167.167-.334.334-.334s.334-.167.167-.334c-.167-.334 0-.668.167-.668.167-.167.167-.668.167-1.169-.167-.501-.167-.835.167-.835.167 0 .334-.334.334-.501 0-.334-.167-.501-.334-.334s-.334 0-.334-.334c0-.167.167-.501.334-.668.167 0 .167-.334.167-.501-.167-.501.501-2.839 1.002-3.006.334 0 .334.167.167 1.002 0 .501-.334 1.002-.501 1.169-.334.167-.334.668.334 1.169.334.167.501.501.167.668-.167 0-.501 1.336-.835 2.505q-.501 2.505-1.002 2.505c-.167 0-.501-.167-.501-.334m.501-22.211c-.334 1.336-.167 1.503.167 1.503.668 0 1.002-.668 1.002-1.837 0-.501.167-1.503.501-2.338.167-.835.501-2.004.501-2.505 0-.835-.167-1.002-.668-.334-.334.334-.668.668-.668 1.002 0 .167-.167.334-.167.334-.167 0-.334.668-.334 1.336s-.167 2.004-.334 2.839m1.503 11.523c0-.835.835-1.503 1.169-2.004.167-.668.167-.668 0 1.169 0 1.169-.167 1.837-.334 1.837s-.334-.334-.167-.835.167-1.002 0-1.002c-.334 0-.501.501-.501 1.002-.167 1.002-.167 1.002-.167-.167m.167-21.71c.167.501.167.334.501-.167.501-.668 2.338-7.515 2.004-7.682 0 0-1.002-.167-1.002 0 0 .501-.167 1.837-.334 2.171-.668 2.171-1.169 5.511-1.169 5.678m.668 17.535c.167-2.672 1.002-4.342 1.67-4.342.668.167.668 2.171-.167 3.006-.334.334-.835.835-.835 1.002 0 .334-.167.835-.167 1.002-.334 1.002-.668.501-.501-.668m1.002-26.553c0 .167.334.167.668-.167.501 0 .835-.334.835-.668-.167-.501-.167-.501-.835 0-.334.334-.668.668-.668.835m.167-1.837c-.167.501-.167.501.835-.167.501-.334 1.002-4.676 1.002-5.01s-.167-.501-.334-.334-.334.334-.334.668c0 .167-.501 2.338-.668 2.338-.334.167-.501 2.171-.501 2.505m.501 20.875c.167-1.002.167-2.004.167-2.004-.167-.167 0-.501.167-1.002.501-1.002 1.169-3.674.668-5.845.167-2.338 1.002-4.843 1.67-4.676.167 0 .501-.167.501-.334.167-.334 0-.334-.167-.167-.501.167-.668-.334-.334-1.169.167-.501.334-.668.334-.167 0 .668.668.668.668 0 0-.334 0-.835.167-.835.501-.334.668.835.334 1.837-.334.501-.501 1.336-.334 1.837 0 .501 0 1.002-.167 1.336-.334.167-.334.501-.167.668 0 .167-.167 1.002-.668 2.004.334 1.002-.167 1.837-.167 2.171 0 .167 0 .501-.167.668-.501.334-.334 2.004.167 1.837.167 0 .334 0 .167.167 0 .167-.334.334-.668.167-.501 0-.501 0-.501.501.167 1.169-.334 3.507-.835 3.507-.167-.167-.334 0-.167.835.167.501 0 .835 0 .668-.167 0-.334 0-.501.334-.334 1.002-.501-.501-.167-2.338m3.006-17.368c-.334-.501.167-1.336.334-1.002.167.167 0 .668.167.835-.501 1.002-.501 1.002-.501.167m.668-3.34c0-.167.167-.334.334-.334s.334.167.167.334c0 .167-.167.334-.334.334 0 0-.167-.167-.167-.334m.167 3.006c0-.167.167-.167.334-.167s.668 0 .668.334c0 .501-.167.835-.501.835s-.334-.167-.334-.501c.167-.334-.167-.334-.167-.501m1.169-29.392c0-.167.167-.501.334-.668.167 0 .334.167.334.501s-.167.668-.334.668-.334-.167-.334-.501m29.893 77.488c.334.167 7.014-1.336 7.515-1.67.334 0 1.169-.501 2.004-1.002s1.503-.835 1.67-.835q.25 0 1.002-.501c.334-.334.835-.334 1.002-.334.167.167.334 0 .501-.334q0-.501.501-.501c.334 0 .835-.167 1.002-.501s.501-.501.668-.501c.334 0 .668-.167.668-.501.167-.167 3.507-1.837 5.01-4.676 1.336-2.171 2.505-1.837 3.507-5.01.167-.167.668-2.004 1.169-3.34 0 .668.167 1.336.167 2.004.501 2.004.334 3.841 1.336 6.012 1.169 2.338 2.004 6.68 6.179 9.018 1.336.668 1.336 1.169 1.837 1.336.501.334 1.002.501 1.503.668s1.503.167 2.004.334c1.002.334 3.006.334 4.676.334 1.503 0 1.837-1.336 2.004-2.004s-.501-2.171-1.336-2.171c-3.34 0-6.179-1.503-7.682-3.507-1.169-1.503-2.672-3.841-2.672-5.678-.167-2.505-.668-3.34-.835-5.177-.501-1.336 0-2.338.334-6.847 0-1.002.167-2.004.167-2.171 0 0 .501-.167 1.002-.167 1.169.167 1.169.167 1.336-1.503 0-.835.501-2.839.835-4.342.334-1.67.835-4.008 1.002-5.177.835-4.008 1.503-6.346 2.505-8.684 1.169-2.839 1.336-3.173 1.169-3.674 0-.334-.334-.501-.668-.668s-.668-.334-.668-.668c0-.668-2.171-2.171-3.841-2.505-2.171-.668-6.012-.668-7.181-.167-1.67.501-2.672 2.004-2.338 2.338 0 .167 0 .835-.167 1.67-.334.835-.501 2.004-.668 2.672-.167.501-.501 2.004-1.169 3.34-.167.835-.501 1.67-.668 2.672 0 .167-.167.334-.167.501-.167.668-.167 1.002-.334 1.503v1.002c-.835 3.34-2.839 8.684-3.173 9.352-.334 1.002-.835 2.672-1.336 3.006s-1.67 2.839-2.004 3.173c-.835 3.006-2.672 3.674-4.342 6.513-.835.668-1.837 1.503-2.338 1.67-.334.167-2.505 3.006-4.008 2.839-1.503.835-4.509 1.503-5.678 1.837s-3.34.334-3.674.501c-.668.334-1.002.501-5.177-.334-4.342 0-6.012-5.01-4.676-7.348 1.336-5.177 6.68-11.189 5.177-12.358-1.169-.835-4.843 1.503-7.181 4.843-2.171 1.67-3.006 4.342-3.674 6.513l-.501 5.511c-.167 1.002 0 5.678 1.169 6.68.501.501.835 1.002.835 1.002.167.167.668.835 1.503 1.503.668.668 3.006 1.336 3.507 2.004 2.505 1.503 4.342 1.336 5.845 2.004.835.334 1.837.167 3.34.167 1.336.167 2.505.167 2.505.334m-4.175-5.845c-.501-.334-.167-.501 2.338-1.002s3.34-.668 3.841-1.002c.334-.167 1.503-.835 2.672-1.336 2.672-1.503 3.507-1.837 3.34-2.171 0-.167.167-.334.334-.334.668 0 6.68-4.008 7.181-4.676.167-.334.501-.334.501-.167s.167 0 .167-.167c.167-.167.501-.334.668-.167.668.167 1.002.668.501 1.002 0 0 0 .334.167.668 0 .167.167.501 0 .668-.167 0-.501-.167-.668-.334-.167-.501-.501-.334-1.336.501-2.505 2.338-8.517 6.179-9.686 6.179-.334 0-.668 0-.668.167-.167.167-.835.501-1.67.835-.835.167-2.004.501-2.505.835-1.169.501-4.509.835-5.177.501m16.032-2.672c-.167-.334.835-.835 3.507-2.839.501-.334.835-.835.835-1.002.167-.167.334-.501 1.169-1.002 1.336-1.002 2.004-1.837 2.004-2.171.167-.334 1.169-.167 1.336 0s.167.501-.167.668c0 .334-.167.501-.501.668-.167.835-4.843 4.342-5.177 4.342-.167 0-.334 0-.501.167s-2.171 1.336-2.338 1.336-.167-.167-.167-.167m6.847-9.853c.167-.334 1.002-1.336 1.837-1.503.668-.334.835 0 1.336.167.501 0 .334.668-.501 1.169-1.336.501-2.171.668-2.672.167m10.187-10.187.668-2.839c.334-1.336 1.67-3.841 1.837-3.173 0 .167 0 1.336-.334 2.672-.167 2.171 0 3.34-.167 4.342s-.167 2.004-.501 2.672c-.334.501-.668 6.68-.334 6.513.167 0 .167.167 0 .668 0 .501.167 1.503.501 2.672.668 2.004.668 3.006.167 2.171-1.67-2.171-2.672-11.523-1.837-15.698m1.169-10.688c0-.334.167-1.169.334-1.837.167-.501.334-1.169.501-1.336.334 0 .334 0 .167.334l-.334 1.837c-.167.835-.334 1.503-.501 1.503s-.334-.334-.167-.501m1.002 2.338c.167-2.004.167-2.171.668-1.837s.501 1.336 0 2.505c-.501 1.67-1.002 1.336-.668-.668m.167 25.551c0-.167.334-.501.668-.167.334 0 .334.501 0 .835-.334.501-.668.501-.668-.668m.501-9.853c-.167-.501 0-1.169.167-2.004.668-1.169.668-1.169.501.835s-.501 2.338-.668 1.169m.334-19.706.501-1.503c.334-1.837.501-3.173.501-1.837 0 .334.835 1.336.334 2.004zm2.004 11.857c0-1.169.668-2.004 1.002-1.67 0 .167 0 .668-.167 1.336-.334 1.503-1.002 1.837-.835.334m.501 11.857c.334 0-.167-3.674 1.169-7.348.668-.668 0-1.169-.501-1.837-.668 0-.668 0-.668 1.169-1.002 4.843-.501 8.016 0 8.016m.167-14.195c-.334-.334-.167-1.837.167-2.004.167-.167.167-.501.167-.668s.167-1.169.501-2.338c.501-1.837.501-2.004-.167-2.171-.334 0-.501-.334-.501-.501 0-.334 0-.501.334-.167s.501 0 1.002-1.169c.167-.835.501-1.837.501-2.338 0-.334.334-1.002.668-1.503l.501-.668-.167 1.67c-.167 1.837-.501 3.674-1.169 5.01-.167.334-.334 1.336-.334 2.171 0 .668-.167 1.336-.334 1.503s-.334.835-.334 1.503c0 1.336-.334 2.171-.835 1.67m9.686 27.221-.668 4.175c6.847 0 10.187-.167 14.696-.835 2.004 0 4.676-.501 4.843-.668 0-.167.334-.167.668-.167 0 .334.501.334 1.002.167l4.175-1.336c.835-.334 1.67-.501 2.171-.668 1.169-.167 5.511-1.503 6.346-1.67.334-.167 1.169-.334 1.503-.501.668-.167 1.503-.501 2.171-1.002.835-.334 1.837-.835 2.505-.835.668-.334 1.169-.334 1.336-.501.501-.501 1.837-.835 3.507-1.002 1.336 0 1.67-.167 2.338-1.002.334-.334 1.002-.668 1.336-.668q.501-.251.501-.501c0-.167.501-.334 1.002-.334.835-.167 4.342-2.004 6.179-3.006.501-.501 1.837-1.169 2.505-1.67 1.503-.835 3.841-2.171 4.342-2.839.334-.167 1.503-.668 2.672-1.503 1.67 3.006 1.67-.334 2.171-.501.334-.501 1.503-.668 1.67-.167 0 .501 1.336.334 1.169-.167 0-.668.167-.668 1.002-.334.501.334 1.002.334 1.002.334.167-.167.334 0 .501.167.167.501-.835.668-1.67.334q-.501-.251-.501 0c.501.334 3.006 1.336 3.507 1.169s.501-.167 0-.334c-1.002-.501-.668-.835.668-.668 2.338.167 2.338.167 2.004.668-.668.501-.167.835.668.835.668.167.835 0 .501-.167-.334-.334-.167-.501 1.169-.334.835 0 1.837.167 2.004.167.167.167.334 0 .334-.501s.167-.501.167-.167q0 .501.501.501c.167-.167.501 0 .668.167.167.334.668.501 1.169.501s.835.167.668.334c0 .167-.501.334-.668.334-.501 0-.835.167-1.002.334 0 .334 2.171 0 2.839-.501.501-.334 5.344-.334 5.845 0 .167 0 1.503 0 3.006-.167 2.004-.167 3.006-.501 3.173-.835s1.002-.668 1.503-.835c1.002-.334 1.336-.668 1.837-1.67.835-1.837 1.503-6.513.835-7.348 0-.167-.167-.668 0-1.169 0-.835-.334-1.837-1.002-1.837-.167 0-.334-.167-.334-.334 0-.334-2.672-2.505-3.674-3.006-1.67-.668-12.859 0-17.869 1.169-.668.167-5.845 1.002-7.181 1.336l-2.839.835-2.004-.668c-3.34-1.002-4.008-.668-7.348-2.171-1.67-.835-3.173-1.503-3.34-1.503s-.501-.167-.835-.167c-.167-.167-.835-.668-1.503-.835l-3.173-1.837c-1.002-.501-2.505-1.336-3.006-1.503-.668-.167-1.67-.668-2.171-1.002-.668-.501-1.67-1.002-2.672-1.336-.668-.167-1.336-.668-1.503-.835q-.251-.501-.501-.501c-.167 0-.835-.334-1.503-.668s-1.336-.835-1.67-.835l-2.171-1.169c-1.002-.501-2.171-1.169-2.839-1.336-2.672-.668-10.688-2.338-12.692-1.336-.334.167-.668.334-1.169.334-1.002 0-4.008 1.837-5.01 4.509-.835 1.002-1.169 4.843-1.002 5.845.167 2.004.167 2.839 0 3.34-.167 1.169-.167 1.169.501 1.503.668.167 1.002 0 1.503-.334 2.171-.668 3.173-1.002 3.841-.668.334.167 3.173.334 6.346.334 3.841 0 6.012.167 7.181.501 2.004.668 5.177 1.169 6.346 2.171 4.175 3.173 15.698 5.845 14.696 4.676.334.835.668.835 1.169 1.169.668.668 1.503.835 2.171.668.334 0 .501.835 0 .835-.334.167-1.169.501-3.34 1.837l-1.336.501c-.334 0-.835.334-1.503.668-.835.501-3.674 1.67-11.69 4.843-7.181 2.839-10.688 6.513-16.533 8.016-2.171 1.503-4.509 1.837-6.346 2.171-.334.334-.501.501.334.501 2.004-.167 4.008-1.002 4.008-1.002.167-.167.334-.334.668-.334.334-.167.501 0 .501.167-.167.167.167.334.835-1.002.835-.334 1.002 0 1.67-.334.167.167 1.169-.668 1.503-.501.835 0 3.674-1.67 4.676-2.171.501-.167 1.503-.167 2.171-.334.668 0 1.837-1.837 3.006-2.338 1.002-.501 2.171-.835 2.505-1.002l2.338-.835c.835-.334 2.505-1.002 3.507-1.503 2.839-1.002 4.676-1.67 5.177-2.171.167-.167.334-.501.668-.501s.668-.167 1.002-.334l2.004-.835c.501-.167 1.336-.668 1.837-.835.835-.334 1.169-.501 1.336-.668.167 0 .501-.167.835-.501.334-.501 2.839-1.169 2.672-.835.167.501-2.505 2.171-3.841 2.672-1.503.334-1.336.334-2.839 1.169-.334.334-1.336.835-1.837.835l-1.336.501c-2.338 1.837-4.008 2.505-12.358 5.845-4.008 1.503-12.692 5.678-14.028 5.845-1.002.334-2.004.501-2.004.668-.167.167-1.336.501-2.839.668-1.336.167-3.507-.167-4.008 0-4.008.835-7.181 2.171-14.028 2.171m9.853.835 3.841-1.837c.835 0 1.336.167 1.67 0 0 0 1.837-.167 2.839-.501 1.002 0 2.338-.334 2.672-.334.167-.167 1.67-.167 2.672-.501s1.837-.835 3.841-1.336c1.336-.334 2.672-1.336 3.34-1.503 3.507-.501 7.014-2.338 6.847-3.006.334-.167.334-.334.501-.334 0 0 .334 0 .334-.167.334-.501 6.513-2.672 6.513-2.171.167.501.668.334.668-.167 0-.334 0-.501.167-.668.334 0 .835 0 1.002-.167.501-.334.668-.334.167.334-.167.334-.334.501 0 .501.334-.167.835-.501.835-.835.334-.334.668-.668 1.169-.835.501 0 .835 0 1.002-.167.501-.668 2.672-1.169 2.505-.668.167.167.167.167.334 0 .334-.167.334-.167.167 0 .167.167-.167.501-.501.334-.167-.167-.334 0-.167.167 0 .334-1.837 1.503-2.505 1.67-.334 0-1.002.167-1.503.668-.501.334-1.67 1.002-2.505 1.169-1.002.334-1.67.835-1.837 1.002s-.835.334-1.336.668c-.668 0-2.004.501-3.34 1.002-1.002.501-2.672 1.002-3.34 1.169-1.002.167-2.672.835-4.008 1.336s-3.006 1.002-4.008 1.169c-.668.167-1.837.334-2.338.668-.501.167-1.837.501-3.173.835l-3.34 1.002c-.835.167-1.837.501-2.338.334h-1.837c-1.002.334-2.004.334-3.006.334-.501.167-1.002.334-1.002.501 0 .334-.668.668-1.002.334m20.708-42.919c0-.167.167-.334.334-.334.334 0 .334.167.334.334s-.167.167-.334.167-.334 0-.334-.167m1.503.167c0-.167.167-.334 1.169 0 .835 0 1.336.334 1.336.501s0 .167-1.336 0c-.668-.167-1.169-.334-1.169-.501m4.008 1.503c.167 0 .501 0 .668.167.334.167.334.334.334.334-.167.167-.334.167-.668 0-.167-.167-.334-.334-.334-.501m4.008 2.839c-1.837-1.336-1.002-1.503 1.336-.334.668.334 2.004 1.002 2.839 1.169.501.334 1.67.835 2.338 1.169.501.334 1.503.668 1.67.835s1.002.501 1.503.835c.334.167 1.002.334 1.336.334 0-.167.668.167 1.169.501.167.501.668.835 1.002.835.167 0 1.503.501 2.839 1.169 1.336.501 3.34 1.503 4.509 2.004l2.505 1.169c.334.167 1.169.501 1.837.668 1.837.501 2.004.668 1.169 1.169-.668.501-2.672.501-3.173-.167-.167-.167-.835-.501-1.002-.501-.334 0-1.002-.167-1.336-.334 0-.334-.501-.501-.668-.501-.334 0-.668-.167-.668-.334s0-.334-.334-.334c-.835 0-2.672-.835-6.847-3.173-1.002-.668-2.672-.334-3.507-1.837-2.171-1.002-3.006.167-4.342-2.171-.501-.501-1.336-.835-1.67-1.002-.501-.167-1.336-.668-2.505-1.169m2.004-15.698c0 .167 0 .501.167.668.835.835 1.336 1.336 2.004 1.837s.668 1.169 1.002 1.503c1.002 1.002 2.338 1.503 4.175-.167.334-.334 2.338-1.837 2.839-2.338.835-.668.835-1.002 2.004-2.004 1.837-1.503 1.336-2.505.835-3.173-.501-.501-1.336-1.503-1.67-2.004-.835-.668-1.169-1.336-1.67-1.837-.501-.835-.668-2.505-2.004-1.503-1.002.668-2.505 2.004-3.507 3.006-.501.334-.835.668-1.336 1.169-.668.334-.835.668-1.336 1.169-1.002.835-2.672 2.672-1.503 3.674m1.503 43.086c-.167.167 0 .334.501.167q.501-.251.501-.501s-.167 0-.334.167c-.501 0-.668.167-.668.167m9.185-17.368c-.334 0-.334-.501 0-.835.501-.167 2.505.501 2.839 1.002.334.167 1.002.501 1.503.668.835 0 1.503.334 1.67.668.334.334.668.668 1.002.835.334 0 .668.334.668.501-.167.501-2.338.167-3.674-.668s-1.503-1.002-1.837-1.002-.835-.167-1.169-.501c-.167-.334-.668-.668-1.002-.668m.835 13.36c0-.334.167-.501.334-.501s.334.167.334.501c0 .167-.334.501-.501.501s-.334-.167-.167-.501m1.503-1.002c.167-.167.167-.334.501-.334.167-.167.334 0 .334.167s-.501.501-.668.501-.167-.167-.167-.334m1.503-1.002c0-.167.167-.334.334-.334s.334.167.334.167c0 .167-.167.501-.334.501s-.334-.167-.334-.334m2.672-1.169c0-.668 1.169-1.837 2.505-2.171 1.67-.501 1.503.167.167.668-.501.167-1.002.501-1.169.668-.167.334-1.336 1.002-1.503.835m1.336-7.181q0-.251.501 0c.167.334.501.501.501.501 0 .167 0 .167-.167.167 0 0-.167-.167-.501-.167-.334-.167-.334-.334-.334-.501m12.692 5.344c.167-.167.501-.334.668-.334.334 0 .501.167.501.334.167.167 0 .334-.501.334s-.668-.167-.668-.334m.668-7.348c0-.167.167-.334.501-.334s.501.167.501.334-.167.167-.501.167-.501 0-.501-.167m1.336 7.849c-.167-.668 2.004-.835 2.338-.167.167.167.334.334.501.334.334.167.334.167.334.334 0 .501 0 .501-1.503.167-1.002-.167-1.837-.501-1.67-.668m0-8.183c.167-.334 2.505-1.169 3.006-.835.167 0-.167.334-.668.501-1.336.668-2.338.668-2.338.334m3.173 5.845c-.334-.501.334-.835 1.67-1.002 2.004 0 2.171 0 4.509.334 1.169.167 2.338.167 2.505 0 .167 0 .668-.167 1.002 0 .334 0 1.503 0 2.672.167 1.336 0 2.171.167 2.338.334.167 0 .835.167 1.67 0 .668-.167 2.004-.167 3.173-.334 1.503-.167 1.67 0 1.503.501-.167.835-.668 1.169-3.173 1.336-1.837.334-8.851.501-9.018.334l-1.503-.334c-2.839-.334-7.181-1.169-7.348-1.336m1.002 3.006c-.167-.334 0-.334.334-.334.334.167.835 0 1.336-.501.501-.668.668-.668 1.002-.167.167.334.334.501.668.334.334 0 .668 0 .668.334.167.167.501.334.668.334.334 0 .668.167.501.334.334.334-.334 1.336-.668 1.169 0-.167-.501-.167-1.169-.167-.501-.167-1.002-.167-1.002-.334s-.167-.334-.334-.334c-.668.167-2.171-.334-2.004-.668m.334-1.169c0-.167.334-.334.668-.334.668 0 .668.167.334.334q-1.002.501-1.002 0m.668-8.35q-.751 0 0-.501c.835-.501 1.002-.334.668.167 0 .167-.334.334-.668.334m.835 13.694c.167.167.334.167.501.167s.334 0 .334-.167c.334-.167.167-.334-.167-.334s-.668.167-.668.334m.334-14.362c0-.167.334-.334.668-.334.501 0 .501.167.334.334q-1.253.751-1.002 0m1.336 2.171c.334-.334.835-.167.835.167 0 .167-.334.167-.501.167-.334 0-.501-.167-.334-.334m4.509 10.521c.668-.501 1.67-.334 1.503 0 0 .167-.501.167-1.002.334-1.002 0-1.002 0-.501-.334m.334-2.338c-.668-.668-.167-.835 1.002-.835 2.672.167 2.505.167 2.338.835-.334.501-.167.501.501.334.501-.167 1.169-.334 1.503-.668s1.503-.167 3.841.835c.835.167-.334.501-2.839.835-1.336 0-2.338.167-2.505.334-.167 0-.334 0-.668-.167-.167-.167-.501-.167-.835-.167-.501.167-2.171-.668-2.338-1.336m2.004 2.338c0-.167.334-.334.501-.334s0 .167 0 .334 0 .334-.167.334-.334-.167-.334-.334m1.002.334v-.334c0-.167.334-.334.334-.334.167 0 0 .167 0 .334s-.167.334-.334.334m34.903 19.372c.334.167 7.014-1.336 7.515-1.67.334 0 1.169-.501 2.004-1.002s1.503-.835 1.67-.835q.25 0 1.002-.501c.334-.334.835-.334 1.002-.334.167.167.334 0 .501-.334q0-.501.501-.501c.334 0 .835-.167 1.002-.501s.501-.501.668-.501c.334 0 .668-.167.668-.501.167-.167 3.507-1.837 5.01-4.676 1.336-2.171 2.505-1.837 3.507-5.01.167-.167.668-2.004 1.169-3.34 0 .668.167 1.336.167 2.004.501 2.004.334 3.841 1.336 6.012 1.169 2.338 2.004 6.68 6.179 9.018 1.336.668 1.336 1.169 1.837 1.336.501.334 1.002.501 1.503.668s1.503.167 2.004.334c1.002.334 3.006.334 4.676.334 1.503 0 1.837-1.336 2.004-2.004s-.501-2.171-1.336-2.171c-3.34 0-6.179-1.503-7.682-3.507-1.169-1.503-2.672-3.841-2.672-5.678-.167-2.505-.668-3.34-.835-5.177-.501-1.336 0-2.338.334-6.847 0-1.002.167-2.004.167-2.171 0 0 .501-.167 1.002-.167 1.169.167 1.169.167 1.336-1.503 0-.835.501-2.839.835-4.342.334-1.67.835-4.008 1.002-5.177.835-4.008 1.503-6.346 2.505-8.684 1.169-2.839 1.336-3.173 1.169-3.674 0-.334-.334-.501-.668-.668s-.668-.334-.668-.668c0-.668-2.171-2.171-3.841-2.505-2.171-.668-6.012-.668-7.181-.167-1.67.501-2.672 2.004-2.338 2.338 0 .167 0 .835-.167 1.67-.334.835-.501 2.004-.668 2.672-.167.501-.501 2.004-1.169 3.34-.167.835-.501 1.67-.668 2.672 0 .167-.167.334-.167.501-.167.668-.167 1.002-.334 1.503v1.002c-.835 3.34-2.839 8.684-3.173 9.352-.334 1.002-.835 2.672-1.336 3.006s-1.67 2.839-2.004 3.173c-.835 3.006-2.672 3.674-4.342 6.513-.835.668-1.837 1.503-2.338 1.67-.334.167-2.505 3.006-4.008 2.839-1.503.835-4.509 1.503-5.678 1.837s-3.34.334-3.674.501c-.668.334-1.002.501-5.177-.334-4.342 0-6.012-5.01-4.676-7.348 1.336-5.177 6.68-11.189 5.177-12.358-1.169-.835-4.843 1.503-7.181 4.843-2.171 1.67-3.006 4.342-3.674 6.513l-.501 5.511c-.167 1.002 0 5.678 1.169 6.68.501.501.835 1.002.835 1.002.167.167.668.835 1.503 1.503.668.668 3.006 1.336 3.507 2.004 2.505 1.503 4.342 1.336 5.845 2.004.835.334 1.837.167 3.34.167 1.336.167 2.505.167 2.505.334m-4.175-5.845c-.501-.334-.167-.501 2.338-1.002s3.34-.668 3.841-1.002c.334-.167 1.503-.835 2.672-1.336 2.672-1.503 3.507-1.837 3.34-2.171 0-.167.167-.334.334-.334.668 0 6.68-4.008 7.181-4.676.167-.334.501-.334.501-.167s.167 0 .167-.167c.167-.167.501-.334.668-.167.668.167 1.002.668.501 1.002 0 0 0 .334.167.668 0 .167.167.501 0 .668-.167 0-.501-.167-.668-.334-.167-.501-.501-.334-1.336.501-2.505 2.338-8.517 6.179-9.686 6.179-.334 0-.668 0-.668.167-.167.167-.835.501-1.67.835-.835.167-2.004.501-2.505.835-1.169.501-4.509.835-5.177.501m16.032-2.672c-.167-.334.835-.835 3.507-2.839.501-.334.835-.835.835-1.002.167-.167.334-.501 1.169-1.002 1.336-1.002 2.004-1.837 2.004-2.171.167-.334 1.169-.167 1.336 0s.167.501-.167.668c0 .334-.167.501-.501.668-.167.835-4.843 4.342-5.177 4.342-.167 0-.334 0-.501.167s-2.171 1.336-2.338 1.336-.167-.167-.167-.167m6.847-9.853c.167-.334 1.002-1.336 1.837-1.503.668-.334.835 0 1.336.167.501 0 .334.668-.501 1.169-1.336.501-2.171.668-2.672.167m10.187-10.187.668-2.839c.334-1.336 1.67-3.841 1.837-3.173 0 .167 0 1.336-.334 2.672-.167 2.171 0 3.34-.167 4.342s-.167 2.004-.501 2.672c-.334.501-.668 6.68-.334 6.513.167 0 .167.167 0 .668 0 .501.167 1.503.501 2.672.668 2.004.668 3.006.167 2.171-1.67-2.171-2.672-11.523-1.837-15.698m1.169-10.688c0-.334.167-1.169.334-1.837.167-.501.334-1.169.501-1.336.334 0 .334 0 .167.334l-.334 1.837c-.167.835-.334 1.503-.501 1.503s-.334-.334-.167-.501m1.002 2.338c.167-2.004.167-2.171.668-1.837s.501 1.336 0 2.505c-.501 1.67-1.002 1.336-.668-.668m.167 25.551c0-.167.334-.501.668-.167.334 0 .334.501 0 .835-.334.501-.668.501-.668-.668m.501-9.853c-.167-.501 0-1.169.167-2.004.668-1.169.668-1.169.501.835s-.501 2.338-.668 1.169m.334-19.706.501-1.503c.334-1.837.501-3.173.501-1.837 0 .334.835 1.336.334 2.004zm2.004 11.857c0-1.169.668-2.004 1.002-1.67 0 .167 0 .668-.167 1.336-.334 1.503-1.002 1.837-.835.334m.501 11.857c.334 0-.167-3.674 1.169-7.348.668-.668 0-1.169-.501-1.837-.668 0-.668 0-.668 1.169-1.002 4.843-.501 8.016 0 8.016m.167-14.195c-.334-.334-.167-1.837.167-2.004.167-.167.167-.501.167-.668s.167-1.169.501-2.338c.501-1.837.501-2.004-.167-2.171-.334 0-.501-.334-.501-.501 0-.334 0-.501.334-.167s.501 0 1.002-1.169c.167-.835.501-1.837.501-2.338 0-.334.334-1.002.668-1.503l.501-.668-.167 1.67c-.167 1.837-.501 3.674-1.169 5.01-.167.334-.334 1.336-.334 2.171 0 .668-.167 1.336-.334 1.503s-.334.835-.334 1.503c0 1.336-.334 2.171-.835 1.67m44.589 32.064c2.672 0 2.672 0 4.509-1.336 1.169-.668 3.674-1.67 4.175-2.338.668-.501 1.336-1.002 1.503-1.002s.334-.334.334-.668c.167-.334 1.002-1.002 1.67-1.837.501-.501 1.002-.835 1.169-1.002.167.501.501.668.668.334.167-.167.167-.167.334 0 .334 2.171 5.511 5.511 8.35 5.511 3.674 1.336 3.674 1.67 9.185 1.67 1.336 0 1.837-1.336 2.004-2.171.167-.668-.334-2.004-1.336-2.004-2.004 0-3.173-.668-4.342-1.503-2.004-1.67-3.006-4.175-3.173-4.676 0-.167-.334-2.004-1.002-3.173-.501-1.336-.334-2.839-.334-3.34-.167-.668.501-4.676.334-5.01s.167-3.006.835-5.177l.501-1.67c-.167-.167 0-1.002.334-1.67.167-.835.501-1.837.501-2.505 0-.501.167-1.67.334-2.505.334-1.002.334-1.67.334-2.171-.167-.334-.167-.835 0-1.67.668-1.503-.334-3.34-.668-5.845-.334-3.173-1.336-5.678-2.505-7.014-.835-.668-1.503-1.336-2.004-1.336l-2.839-.167c-.501-.501-4.342-1.002-5.845-1.169-2.839 0-3.507.167-3.841 1.002-.167.334-.334.668-.501.501-.334-.167-.334.167-.334 1.002.167 1.002.167 1.002-.501.835-.334 0-1.169 0-2.004.167-1.169.334-2.338 0-3.841 1.67-1.002 1.002-4.676 2.171-5.01 2.338l-4.175 3.006c-1.837 2.171-4.676 8.35-2.338 7.014l1.336-.501c.334 0-.501 2.171-1.002 3.006-.334.501-1.002 1.169-1.169 1.67s-.501 1.169-.835 1.503c-.167.167-.501.835-.668 1.169-.334.501-.668 1.336-1.002 2.171-.501.668-.835 1.503-.835 1.67 0 .334-.334.501-.501.501-.334 0-.334.167 0 .334.501.501 1.336-.167 1.503-1.169 0-.334.167-.668.501-.835.167 0 .501-.334.501-.668s.334-.835.501-1.169c.668-.501.668-.668.835-.167.334.501.334.835 0 .835-.167 0-.334.501-.668 1.169 0 .501-.334 1.169-.668 1.336-.334.334-.501.668-.334 1.169 0 .501-.167.668-.668 1.002-1.336.501-1.336.501-1.503-.501-.334-.668-.334-.835-.501-.334 0 .334-.334.835-.835 1.169-.167.334-.835 1.169-1.336 1.837-.334.668-1.169 1.837-1.67 2.505-.501.835-1.503 2.171-2.171 3.173-.835 1.67-1.503 2.004-1.336 1.002 0-.334 0-.835.334-1.002.167-.167.501-.668.668-1.336.668-1.503 0-1.002-1.336 1.002-1.002 1.67-2.004 2.839-2.004 2.338 0-.167.334-.668.668-1.002.167-.501.334-.835.167-1.002 0-.167-.167-.501-.334-.167-.167.167-.835 1.503-1.837 2.338-.668.668-2.505 10.02-9.185 10.02l-.668 4.175c8.016 0 9.519-1.837 11.523-3.34.501-.334 2.839-1.67 3.006-2.004 0-.167 1.336-1.503 1.837-2.004s.835-1.002.835-1.169c.167-.501 1.169-1.336 1.67-1.336.668.167 1.169.668 1.002 1.002-.167.668.835 3.006 2.004 4.843.835 1.336 1.503 1.837 4.175 3.173 3.006 1.503 7.014 1.503 9.519 1.503m-32.064-3.841c-.501.334 2.338.167 5.177-2.839.334.334 2.338-2.338 3.173-3.841.668-1.002 1.336-1.837 2.338-2.839.334-.334.668-.835.668-1.002s.167-.167.334-.167.334-.334.334-.501.668-1.336 1.503-2.338c.668-1.002 1.503-2.004 1.503-2.004 0-.167.167-.668.501-1.002.668-.668.835-.668.835-.334.334 1.002-2.004 5.678-2.672 5.344-.167 0-.167 0-.334.334.167.334-.167 1.002-2.171 2.839-.501.501-1.169 1.169-1.169 1.336 0 .334-.501 1.169-1.503 1.837-1.67 1.837-1.837 2.004-3.173 3.674-.334.668-3.841 2.171-5.01 2.171-.501 0-.501-.334-.334-.668m3.173-3.674c2.171-1.837 2.505-3.841 3.006-4.175q.501-.752.501-1.503c0-1.002.501-1.67.835-1.169.167 0 .167.167-.167.334-.167 0-.334.334-.501.835 0 .501 0 .501.334 0 .835-1.002 2.505-2.338 2.672-2.171s-.501 2.004-1.169 2.338c-.167.334-.835 1.002-1.503 1.837-.501.835-2.171 3.34-3.841 4.342-.501.334-.668 0-.167-.668m6.179-11.356c0 .501 0 .835.167.835s.334-.167.334-.334 0-.668.167-.835c.167-.334.501-.501 1.002-.668.668 0 1.002-.334 1.837-1.169.334-.668.835-1.336 1.002-1.503.167 0 .501-.835.501-1.67.167-1.169.334-2.004 1.002-3.173.501-.835 1.002-1.67.835-1.837s-1.503 1.336-1.503 1.67c0 .167-.668 1.169-1.169 2.171-1.169 2.004-1.503 2.505-.668 1.837.167-.167.501-.334.668-.334s.167.167 0 .334-.334.501-.501.835c0 .167-.334.668-.501.835-.501.501-1.002.668-.668.167.167-.167 0-.334-.167-.334s-.334.167-.334.334-.334.668-.835 1.169-.835 1.169-1.169 1.67m7.515-2.839c-.334-.501 1.002-2.004 1.67-2.004.668.167.334.835-.501 1.002-.501 0-.668.334-.835.835 0 .334-.167.501-.334.167m1.002-10.855c-.334.334-.167.668.167.668.167 0 .334-.334.501-.668 0-.334 0-.668-.167-.668s-.334.334-.501.668m1.503-1.837c.668.501 1.169.501 1.336-.167 0-.334-.334-.501-.501-.501-.501 0-.501-.167-.167-.668q.25-.501 0-.501c-.167 0-.501.334-.668.668-.334.668-.334.835 0 1.169m1.336-1.336c0 .167.167.334.334.334.501 0 .835-1.002.334-1.336-.167-.167-.668.501-.668 1.002m3.674-4.175c.167-.334.835-1.503 1.002-1.67s.668-.501.835-.835c.334-.501.334-.501 0 .501-.167.668-.334 1.336-.668 1.67-.668.501-1.169.668-1.169.334m3.006 30.895c-.167-2.839 0-5.678.835-8.35 0-1.169.501-2.672.501-3.34.167-.668.167-2.004 1.002-3.173.334-.668.501-1.169.501-1.336-.167-.167 0-1.002.334-2.004.501-.835 1.002-2.004 1.336-3.006.334-.835.334-2.505.668-3.507.668-1.002 1.169-2.505 1.336-3.006 0-.835 1.67-4.843 2.004-5.01.334-.334 3.006-5.344 6.346-6.012.668-.334 2.839-.835 3.507.668.501 1.002.501 2.839 0 4.509-.334 1.002-.334 1.67-.167 1.837.167.334.167 1.336 0 1.67-.167.167-.501 3.674-.835 4.843-.334 3.006-1.169 7.682-2.004 10.187-.334 1.169-1.169 4.342-2.171 6.68-1.336 2.171-2.171 3.841-2.171 4.008s-.501.668-1.002 1.169-.835 1.002-.835 1.169c0 .334-1.169 1.67-2.004 2.505-.501.835-1.67 1.67-1.67 1.837s-.501.167-.835.668c-.668.334-1.837.668-2.004.668-1.336-.334-2.338-1.169-2.672-3.674m13.861-6.179c.167-.835.501-1.67.835-1.67.334-.501.668-.501.501 0 0 .334-.334 1.169-.668 1.67-.334 1.336-.668 1.336-.668 0m1.67-36.907c.334-.167.501 0 .668 0 0 .167-.167.167-.501.167s-.334 0-.167-.167m.334 1.169c-.501-.167-.501-.501.334-.668.501-.167.668 0 .501.334 0 .668-.167.668-.835.334m1.336.334c-.167-.167 0-.334.167-.334s.334.167.334.334-.167.334-.167.334c-.167 0-.167-.167-.334-.334m3.006 25.551c-.334 0-.167-2.004.167-3.173.668-1.837 1.169-4.175 1.336-6.513s.501-3.34 1.169-2.505c.501.501.167 1.67-.334 3.507 0 1.002-.501 2.004-.334 2.672-.167 1.002-.167 2.004-.501 1.67-.167 0-.167.334-.334.835.167.501 0 1.002-.167 1.002s-.167.167-.167.334-.167.668-.501 1.169c-.167.501-.167 1.002-.334 1.002m2.004-13.527c0-.334.167-1.002.501-1.002.167-.334.501 0 .501.668 0 .334-.334.668-.501.668-.334 0-.501 0-.501-.334m.501 29.726c-.167 0-.167-.668 0-.835 0-.167.167-.668 1.002.167 2.839 3.173 6.513 5.344 8.183 5.845.668.501-.167 1.002-1.169.167-.835-.668-4.509-2.004-8.016-5.344m5.177-.835c.334-.501.668.334.835.668.167.668 0 .835 0 .835l-.167-.167c-.668 0-1.336-.835-.668-1.336m102.037 9.018c1.336 0 1.837-1.503 2.004-2.338.167-.501-.334-1.837-1.336-1.837-2.338 0-3.507-.668-5.678-1.67-.835-.334-1.67-1.336-2.672-1.837-1.169-.668-2.171-2.171-3.34-3.34-1.67-1.837-1.169-.668-3.34-3.34-1.002-.668-2.171-2.505-3.34-3.674-.334.167-.501-.167-.334 0 .835-.501 0-1.169-1.336-1.837-.835-.167-2.171-1.503-3.507-2.505-5.177-2.004-8.183-7.849-9.352-8.183-.501-.167-1.837-1.002-2.004-1.169s-.668-2.004-1.837-2.505c-.835-.668-3.507-2.505-5.01-3.507-4.509-4.509-6.346-5.01-6.847-5.01-.167 0-.668-.501-1.336 0-.334-.334-1.002-.835-2.171-1.503-.835-.334-1.837-1.002-2.171-1.169-1.503-2.505-4.342-2.004-7.515-2.338-.835 0-3.841-.501-4.008-.835-2.171-1.503-7.849-.668-10.521 4.509-.167-.167-.501.334-.668.835l-1.002 2.338c-.668 1.002-.668 1.503-.668 2.171.167.501-.167 1.336-.167 2.004-.334.835-.167 1.169 0 1.336.167 0 .334.501.167.835l.167 1.169c.334.334.668.668.501 1.002-.334.835 1.336.668 2.171-.334.668-1.002 3.34-.167 4.509-.334 3.841-.835 11.857-1.002 14.529 1.67.334.334 1.336.835 2.171 1.169 3.674.835 4.843 1.503 5.344 2.004.501.835 5.344 2.839 6.012 3.006.334 0 2.839 1.169 3.34 1.503.668.668 3.173 2.505 5.177 4.342-3.006-1.169-6.847-1.67-11.857-.501-1.837.334-4.843 1.503-6.012 2.171-.501.334-1.336.668-1.837.668-.501.167-1.503.501-2.004.835-1.336.501-5.344 2.672-7.014 3.841-.501 0-2.672 1.336-4.008 1.67-1.503.334-2.505 1.503-3.34 1.67-.668 0-1.837.668-2.004.835-.167 0-2.171 1.169-3.173 1.336-1.002 0-2.171.167-2.505.334-.501 0-1.67.668-2.505.835-.668 0-3.173.835-3.841.835-3.507 1.002-5.344.668-8.684.668l-.668 4.175c4.509 0 7.014 0 11.022-.501.167-.167 2.004 0 3.841-.668 1.67 0 3.507-.501 3.841-.668s1.169-.334 2.004-.501c.835 0 2.505-.167 3.674-.334 1.002-.167 2.338-.167 2.839-.167 1.837-1.169 4.843-1.67 5.678-1.837s1.336-.501 1.503-.668c0-.334 4.175-.501 5.511-1.169.668-.167 3.674-.835 4.008-1.169.501-.334 1.336-.668 1.67-.668s1.336-.334 2.505-.835c1.002-.501 6.012-1.837 6.513-2.004.668-.167-.501 1.837.334 2.505 4.008-1.503 6.179 4.509 12.191 3.34.334-.167.835-2.338 1.002-4.342 1.169 1.002 2.672 2.004 4.509 2.839s3.006 2.505 5.01 3.34c2.171.835 1.837.835 4.342 2.004 2.672 1.336 8.016 1.503 11.523 1.503m-88.844-3.006c.167-.334.334-.167 1.67-.167 1.002 0 2.672-.501 2.672-.167-.167.334-1.169.835-2.171.835-1.336 0-2.171 0-2.171-.501m6.847-.167c-.334-.334.167-.835 1.169-.835.334 0 1.002-.167 1.503-.167 6.012-1.67 8.35-2.171 10.354-3.006.334 0 1.002 0 1.837-.501.668 0 1.336-.167 1.503-.334.334-.501 1.336-.835 2.505-1.002.835-.501 2.338-.835 3.173-1.336 1.837-.835 3.006-1.002 2.338-.334-.167.501-.668.501-1.002.668-.501 0-1.002.167-1.002.334 0 .334-.501.501-1.002.501-.501.167-1.169.334-1.336.668q-.25.25-.501 0c-.167 0-.835.334-1.67 1.002-.835.334-1.837 1.002-2.171 1.002s-.835.167-1.503.668c-.501.334-2.004.668-3.34.835-1.169.334-2.672.501-3.507 1.002-.835.334-1.67.334-2.338.334-1.503-.167-2.171 0-2.338.334-.334.501-2.171.668-2.672.167m25.885-8.016c0-.334.501-.668 1.002-.835 1.336-.501 1.67-.501 1.336 0 0 .167-.167.167-.334.167-.167-.167-.334-.167-.334 0l-.835.501c-.167 0-.501.167-.668.334-.334.167-.334.167-.167-.167m1.503-26.219c.167-.167.334-.334.501-.334.334.167.334.334.334.501s-.167.334-.334.167c-.167 0-.334-.167-.501-.334m1.503 25.05c-.167-.334 2.338-2.171 6.179-3.006.501-.167 1.336.167 1.336.334l-.668.167c-.334 0-.835 0-1.336.167-1.503.501-3.841 2.004-3.841 1.837-.167 0-.501 0-.835.334s-.668.334-.835.167m1.002-21.543c.167-.167 2.171-.167 2.004.167-.167.167-.668.835-1.002.835-.668 0-1.336-.668-1.002-1.002m1.67-.835c-.501 0-.501-.334 0-.835.167-.167 2.004.167 1.837.501 0 .167-.167.334-.668.501s-.668 0-.501-.334c0-.167 0-.334-.668.167m2.839 2.839c.501-.334 1.837.501 1.837 1.002-.334.501-.501.501-1.336-.167-.668-.334-.668-.835-.501-.835m.334-2.004c.334-.334 1.837 0 2.171.668.334.167.835.835 1.002 1.002s.501-.167.501 0c-.167.167-.668.334-1.002.167-.334-.501-.668-.835-.668-.668-.668.167-2.505-.835-2.004-1.169m2.505 18.37c.334 0 .501 0 .668.167 0 .167-.167.167-.501.167-.334-.167-.334-.334-.167-.334m1.837.167c-1.002-.167-.668-.501 0-.668s.835-.167.835.167c0 .167-.334.334-.835.501m.167-16.199c-.501-.501-.501-.668 0-.668.501.167 1.503 1.002 1.336 1.336s-.835 0-1.336-.668m1.169 15.698c-.167 0-.167-.167 0-.334l.501-.334c.167 0 .167.167 0 .334s-.334.334-.501.334m.501-15.03c.334-.167 2.672 2.839 5.01 4.509.501.167 1.336.835 2.171 1.336 2.839 2.505 3.674 2.505 3.507 3.34.501 0 0 1.002 0 1.169s-.334.334-.334.334.334-1.336-.334-1.67c-.835-.334-2.505-2.171-7.348-5.01-2.171-1.002-3.173-3.674-2.672-4.008m.501 14.696c.501-.167.668 0 .668.167.167 0 0 .167-.334 0-.501 0-.501-.167-.334-.167m3.507-7.348c.167-.501 2.505 0 2.505.668.501.501 0 .501-1.336.167-1.002-.167-1.169-.501-1.169-.835m3.34-3.006c0-.167.167-.334.501-.167s1.002.334 1.503.501c.334.167.501.501.501.668 0 .334-.167.334-1.503-.334-.501-.334-1.002-.501-1.002-.668m1.67 6.179c-.167 0 0-.334 0-.501.167-.501 1.002.334 1.002 1.503.167.167.334.501 0 .668 0 .167-.167-.167-.334-.167.334-.668-1.002-1.002-.668-1.503m2.672-2.505c.334 0 1.002.668 1.336 1.002 0 .501-.334.167-1.169-.334-1.336 0-.835-.835-.167-.668m1.503 4.509c.167-.167.167-.334.334-.334s4.843 4.175 5.01 4.342c0 .167-.167 0-.334 0-.334 0-.668 0-.668-.167 0-.334-.334-.668-.835-.835-.501 0-.668-.334-.835-.668 0-.334-.501-.668-1.002-.835-1.002-.167-1.837-1.169-1.67-1.503m0-2.004s.668-.334 1.336 0c.668 0 1.169.334 1.169.668-.167.334-.835.668-1.503.334-.501-.334-1.169-.668-1.002-1.002m3.674.668c0-.167.334-.167.835.167l2.004 1.169s.167 0 .167-.167v.334c.167.167.334.334.668.501l.501.501c.501 0 1.67 1.002 1.67 1.336-.167.334-.501 0-1.67-.835-1.002-.501-1.336-.668-1.336-.334 0 0-.167.167-.334.167-.167.334-.668.501-1.002.668-.835.167-.835.167-.167-.501.334-.334.501-.668.334-.835s0-.334.167-.334c-.167-.167-.501-.334-.835-.501-.501-.501-1.002-.835-1.002-1.336m1.837 1.837s.167-.167.334-.167c.334-.167.501-.167.668-.334 0 0 0 .167.167.167l-.334 1.169s0 .167-.167.167c-.334 0-.835-.167-.668-.501.167-.167 0-.334 0-.501m55.444 19.038c2.505 0 8.016-.668 9.352-1.837l3.34-2.839c1.67-2.338 5.01-5.845 4.843-6.513 0 0 .167-.501.501-.835s.334-.835.167-1.002c-.167-.334 2.338-4.676 2.338-7.348.334-1.002 1.002-1.837 1.002-2.338.167-.668.501-1.336.668-1.503v-.835c0-.501-.167-.835 0-.835 0-.167.501-.835.668-1.169 0-.668 0-1.336.167-1.503 0 0 0-.668.501-1.503 0-.668-.501-1.336-.334-1.503.167-.334 0-1.002 0-1.169 0-.668.167-1.503.334-2.004.668-1.503.167-3.173-.167-4.008-.668-4.509-5.511-9.185-6.68-9.853-1.169-1.503-3.006-3.006-3.674-2.839-.167 0-.501 0-.501-.167s-.167-.334-.334-.334c-.167.167-.835-.167-1.169-.334-.835-.167-3.841-.668-5.01-.668h-1.503c-3.34-.334-5.511.167-5.344.835.167.167.167.334-.167.501-.167 0-1.002.835-.501 1.002-.334.668-1.503.501-2.338.835-.167.167-.501.334-1.169.501-1.169.501-3.006 1.67-3.173 2.505.167.334 0 .835-.167 1.002-.334 0-2.672 2.505-2.672 2.672-1.336 1.002-2.004 3.006-5.344 10.187-1.169 2.171-1.169 2.171-.668 2.839.835 1.169.668 2.171 0 2.839-.501.501-.835 1.503-.501 1.503.501-.167 1.169-.835 1.002-1.169 0-.167.167-.501.334-.501v-.501c-.167-.167 0-.501.167-.668.501-.334.668-.668.668-.668 0-.167.668-1.169 1.169-2.171 1.002-1.837 1.002-2.338.334-2.171-.334 0-.334-.167-.334-.167-.167-.501.334-.835.835-.668.334.334.668-.167 1.503-1.67.501-1.002 1.169-1.837 1.336-1.837.501-.167 1.503-2.338 1.336-2.672 0-.167.167-.334.334-.501.167 0 .501-.334.668-1.002.167-.501.501-1.002.668-1.002.334 0 .501-.167.501-.334s0-.167.167-.167c.501 0 .334 1.002-.334 2.171-.334.334-.835 1.336-1.002 2.004-.334 1.002-1.503 2.839-2.004 3.841-.501.501-.334.668.167.668.334.334.334.334-.501.501-.501.334-.501.501-.334 1.336.501 1.169-.167 2.839-1.002 3.173-.668.334-.835.501 0 .668l.668.167-.668.668c-.668.501-.668.835-.334 1.503.167.334 0 .501-.167.668-.167 0-.501.167-.668.501q-2.254 3.006-2.505 1.503c-.167-.501-.167-.501-.668.334-.167.501-.334 1.002-.167 1.169.167.501-1.67 3.006-2.171 3.173-.167 0 .668 1.67.501 2.338-.167.835-.668 1.503-2.171 4.175-.334.501-.668 1.336-1.002 1.837-.167.501-.668.835-.668.668-.167-.334.167-1.002.835-2.839.501-1.503 2.004-4.843 2.171-4.843s-.167-2.004.334-3.173c.501-1.002.167-2.171.334-2.171v-.668s0-.334.334-.501c.167 0 .167-.334 0-.501-.334-.501-.334-.501-.334.167 0 .334-.334.501-.501.334-.167.167 0-.668.334-1.336.167-.668.167-1.503.167-1.67-.835-.167-1.67 4.342-2.839 8.35-.835 1.837-.835 3.507-1.837 4.676-.501.501-1.336 3.34-1.67 4.008-2.004 3.34-4.676 5.344-8.016 5.344l-.668 4.175c6.012 0 8.684-1.002 11.857-2.338.501-.501 1.336-1.169 2.672-2.004 1.837-1.503 2.338-3.006 2.839-3.841 1.169-2.004 1.169-5.177 2.004-5.344.167-.167.334 1.503.501 3.173 0 2.672 1.336 5.01 1.67 4.008.334-.334.334-.334.501 0-.167.668.501 2.004 1.67 3.507.835 1.002 4.676 3.006 5.177 2.839.167 0 .835.334 1.169.668.501.167.835.334 1.169.334s1.169 0 2.004.167m-18.036-18.37c0-.167.334-.835 1.503-3.006.835-1.67.835-1.67 1.67-1.336.501.334.668.501.167.501q-.501-.251-.501 0c.167.334-.334 1.169-1.503 2.839-.835 1.002-1.002 1.503-1.336 1.002m.167 3.507c.167-.334.501-.668.668-.668s.167.167.334.501c0 .334-.167.501-.668.668-.668.167-.668.167-.334-.501m1.336.668s.167-.167.334-.167c0 0 .334.167.167.167l-.334.334s-.167-.167-.167-.334m.835-4.175c.334-1.002 1.002-1.336.835-.668 0 .167-.334.668-.668.835-.167.501-.167.501-.167-.167m.334-6.513c.501.167.835 0 .835-.668 0-.334-.167-.334-.501-.334-.668.334-.668.668-.334 1.002m.334 5.01c0-.167.167-.334.334-.334.167-.167.334-.334.167-.668 0-.167.167-.668.835-.835.835-.501.835-.501.334 0l-.501 1.336c-.501.501-1.002.835-1.169.501m1.336-8.517s.167 0 .501-.334c.334-.668.334-1.002.167-1.002-.167-.167-.835 1.002-.668 1.336m1.002 15.698c.167-.835.334-.835.668-.668s.668 1.002.167 1.002c-.167.167-.167.501.167.668.167.334 0 .501-.167.501q-.25 0 0 .501c.167.334.167.668.167 1.002-.334.835-1.336-1.837-1.002-3.006m.167 3.674c-.167-.334 0-.334.501-.167.334.167.501.334.668.501 0 .167-.334.334-.668.167-.167 0-.501-.334-.501-.501m.167-6.68.334-1.67c-.167-.334.668-.501.835-.334 0 .167 0 1.169-.167 2.004 0 .835-.334 1.67-.501 1.837-.334.501-.668-.668-.501-1.837m.501-15.865c0 .501 0 .501.167 0 .334-1.002.501-1.503.334-1.503-.334.167-.501 1.002-.501 1.503m.167 12.525c-.167-.167 0-.668.167-.668s.334.167.334.334c0 0 0 .501-.167.668-.167.334-.167.334-.334-.334m.835-14.696c0-.167.334-.167.668 0 .334.501.334.501-.334.167-.167 0-.334-.167-.334-.167m.501 23.046c0-.501.167-.501.334-.334s.334.167.334.501c-.334.668-.668.501-.668-.167m0-2.672s0-.167.167-.167l.334.167s0 .334-.167.334-.501-.167-.334-.334m.167-8.35v-.334h.334q.251 0 0 0c0 .167-.167.334-.334.334m.167 5.344c0-1.002.334-1.169.835-.835 0 .167 0 .668-.167.835-.334.334-.668.835-.501 1.002-.167.835-.334-.167-.167-1.002m.167-1.837q-.25-.501 0-.501c.167 0 .501-.334.501-1.002.167-.501.501-1.002.668-.835l-.334 1.336c-.167 1.503-.501 1.67-.835 1.002m1.169-3.841s0-.167.167-.167c0 0 .167.167.334.167 0 .167-.167.334-.334.334s-.334-.167-.167-.334m.501-1.837c-.167-.334-.167-.501 0-.334s.167.501.167.668c0 .334-.167.167-.167-.334m.167-1.169c-.167-.167 0-.334.167-.501.167 0 .334.167.334.334s0 .334-.167.334-.334 0-.334-.167m.501-14.028c0-.167 0-.167.334-.334.501-.501.835-.334.334.167-.167.501-.668.501-.668.167m1.169-1.503.334-.334s.167 0 .167.167c0 .334 0 .501-.167.501-.167.167-.167 0-.334-.334m.835-.835c-.167-.334-.334-.501 0-.334.167.334.167.334.167.501s-.167.167-.167-.167m1.169 32.231c-.501-.501-.167-2.171 0-3.173.167-.334.167-.835 0-1.002-.167-1.002 0-2.672.501-3.507 0-.167.167-.668 0-.835v-.835c.334-.167.501-2.672.501-3.006v-.668c.334 0 .501-.501.334-1.002.167-.334.334-1.169.668-1.837.167-.668.501-1.67.501-2.338.167-.835.167-1.169.334-1.169.167-.167.334-.334.167-.668 0-.167.167-.668.501-1.169 0-.334.501-1.169.668-1.67-.167-.334.334-1.002.501-1.169s.835-.835 1.169-1.503c.334-.334.501-1.169.835-1.503.334-.501.167-.835 0-1.169-.334-.835-1.837-1.837-2.505-1.837-.668.167-1.336-.668-.668-.835 0 0 .501-.167.668-.835.334-.334.668-.835.835-1.169.334-.334.668-.668.835-1.002.334-.501.835-.835 1.002-.501 0 .501-.167.835-1.002 2.672-.501.668-.835 1.336-.835 1.503.334 0 .835-.334 1.169-1.169.501-1.169 1.67-2.672 2.171-2.672.167-.167.167-.334.334-.668.334-.167.668-.668 1.002-.835.501-.334.501-.835.167-.835-.167-.167-.501 0-.501.167-.334.501-1.336 1.002-1.336.501 0-.167.501-1.002.668-1.169.167 0 .334-.167.334-.334-.334-.668.668-1.169 1.169-1.336 1.336-.501 1.837-.334 2.672.501 2.338 2.171 2.505 9.853 2.004 13.193-.334 1.837-.668 3.674-.501 3.841 0 .167-.167.668-.334 1.002-.501 1.169-.835 2.839-1.336 4.175-.167.501-.334 1.503-.501 1.837 0 .501-.334 1.169-.501 1.67-.334.501-.501 1.169-.501 1.336 0 .334-.501 1.336-.835 2.672-.334 1.503-1.002 2.672-1.336 3.173-1.002 2.839-2.004 5.511-1.002 4.008.334-.501.501-.668.668-.501.167 0-.501 1.503-1.002 1.67-.167 0-.668.501-.668 1.336-.501.668-1.503 1.336-2.839 1.67-1.503.501-3.173-2.338-3.006-3.841-.167-1.169-.334-1.837-.167-3.006-.167-.334 0-1.169.167-1.503 0-.334 0-.334-.334-.167s-.334.334-.334.668v.668c0 .334-.167 1.336 0 2.338 0 1.002.334 1.837.167 1.837.334 1.336.835 2.672 1.336 3.674.501.501.501.334.668.835-.167.334-1.169.668-1.67-1.169-.334-.835-.501-1.336-.668-1.503s-.334-.501-.167-.835c0-.501-.167-.835-.167-1.002m1.002-6.346c0 .334.334.167.334 0 .167 0 .167 0 .167-.167 0 0-.334-.167-.334-.334s-.167 0-.167.167c-.167.167 0 .334 0 .334m.167-1.336c0 .167.167.334.334.167v-.668c0-.167 0 0-.167 0-.167.167-.167.334-.167.501m.167-1.169c.334.334.334.167.334 0 0 0-.167-.334-.167-.501-.167-.334-.167.167-.167.501m6.012-28.39v-.334c.167 0 .668.167.668.334s-.167.334-.334.334-.334-.167-.334-.334m.501-.501c0-.334 0-.668.501-.501.334 0 .668.167.501.334 0 .501-.334.668-1.002.167m4.342 38.577c-.167-.501 0-.501.334-.167 0 0 .334 0 .668-.501.334-.167.668-.167.668-.167.167 0 .668-.167 1.002-.668 1.002-.668 1.336-.501.668.501-.668 1.169-2.338 2.004-2.839 1.837-.334-.167-.501-.501-.501-.835m1.169-6.179c.167-.334.167-1.002.167-1.169-.167-.167 0-.334.167-.501.167 0 .501-.835.668-1.67.167-1.002.668-2.171 1.169-2.672.334-.835.668-1.336.501-1.503 0 0 .334-.668.334-1.503.334-.668 1.002-2.171 1.336-3.173.167-1.336.668-3.006 1.002-3.841 1.336-3.674 1.503-9.686 1.169-11.356-.167-.334-.835-1.503-.668-1.503.167-.167.167-.334 0-.668-.668-.835-.835-1.503-1.002-1.67-.167-.835.334-.835.835-.334.501.334 1.002.835 1.169 1.503 1.002 1.169.167 1.67.334 2.672-.501 0 1.336 1.67 1.67 4.509-.167.167.334 2.338-.835 3.841 0 .501-.167.835-.167 1.002v.501c-.334.334-.501 1.336-.501 2.171l-.501 2.672-.668 1.002-.334 1.503c-.501 1.67-.668 1.67.334 2.004.835.334 1.169.334.835-.334-.167-.501-.167-1.503.334-1.67 1.837-.334.334 2.839-.501 3.173-.334 0-.668.167-.835-.167 0-.167-.167-.501-.501-.835-.334-.501-.501-.334-.501-.167-.334.334-.334.501-.167.668.167 0-.334.501-.835 1.002-.835.334-.835.668-.668 1.169.167 1.169 0 1.503-.668 1.67-.501 0-.501.501-.668.668.167.334-.167.835-.668 1.336-.167.668-.501.835-.334 1.002-.167.167-.334.668-.835 1.169-.668.835-1.002.501-.167-.501m2.672-33.901c1.169-.334 1.503.167 1.336.501-.167.167.167.668-.501.668zm9.018 15.698c.334 0 .501-1.169.334-2.004 0-.167.167-.167.334-.167.501-.167.668.668.334 2.171-.167.167-.167.835 0 1.169.501.501-.334.835-.835.501-.334-.167-.501-1.67-.167-1.67m.501 7.181c-.167-.167 0-.334.167-.668.167 0 .334.167.167.334.167.167 0 .501 0 .501s-.167 0-.334-.167m.835-9.853c0-.167 0-.334.167-.668 0 0 .167 0 .167.167.167.167 0 .334 0 .501-.167.167-.334.167-.334 0"/></svg>