<?xml version="1.0" encoding="UTF-8"?>
<svg version="1.1" xmlns="http://www.w3.org/2000/svg" width="801" height="195">
<path d="M0 0 C7.3292261 3.94650636 9.00198185 11.48497005 11.70263672 18.93945312 C16.55623503 34.97058849 16.55623503 34.97058849 27 47 C29.34852226 47.56689282 29.34852226 47.56689282 31.75 47.6875 C32.54921875 47.75324219 33.3484375 47.81898437 34.171875 47.88671875 C35.07679688 47.94279297 35.07679688 47.94279297 36 48 C36.09796875 47.27554688 36.1959375 46.55109375 36.296875 45.8046875 C37.46317823 38.26393384 39.0839943 33.10976759 45.25 28.25 C50.93735241 24.47058419 57.23371837 23.37349244 64 24 C71.78593877 26.70124406 75.41318755 32.68267847 78.9375 39.75 C79.35902344 40.67296875 79.78054688 41.5959375 80.21484375 42.546875 C82.56097842 45.77088501 85.27134253 46.9047863 89 48 C91.86781663 48.19029831 94.46608115 48.2429237 97.3125 48.109375 C98.4713269 48.07327118 98.4713269 48.07327118 99.65356445 48.03643799 C102.10316693 47.95595176 104.55124732 47.85287659 107 47.75 C108.64318351 47.69522722 110.28641346 47.64182954 111.9296875 47.58984375 C113.51566814 47.53508985 115.10160804 47.4791401 116.6875 47.421875 C117.41686768 47.39575134 118.14623535 47.36962769 118.89770508 47.3427124 C123.33371612 47.15431385 127.62253925 46.69563187 132 46 C132 45.34 132 44.68 132 44 C129.01603835 42.94566688 126.01446636 41.9632318 123 41 C122.05125 40.67 121.1025 40.34 120.125 40 C115.71624344 40 112.60858127 41.92798014 108.69140625 43.8359375 C105.03051972 45.41931077 102.91232225 45.73356042 99 45 C97 43.5 97 43.5 96 41 C95.7313014 33.34208986 99.42508743 27.93111195 104 22 C108.85029118 16.93194064 112.63762002 14.85384975 119.75 14.5 C127.11875195 14.50826093 132.32489422 17.0190868 138.6875 20.37109375 C145.40559898 23.67468723 152.42711374 23.30106724 159.78320312 23.51757812 C161.08354492 23.56881836 161.08354492 23.56881836 162.41015625 23.62109375 C163.19527588 23.6461499 163.98039551 23.67120605 164.78930664 23.69702148 C167.25242101 24.03459464 168.88950223 24.69780245 171 26 C173.60099472 30.2916413 173.56442574 35.13182803 173 40 C171.8125 43 171.8125 43 170 45 C166.12120621 46.40067554 162.08869736 46.08017054 158 46 C158 46.66 158 47.32 158 48 C162.04152915 48.08746928 166.08281305 48.14054982 170.125 48.1875 C171.26710938 48.21263672 172.40921875 48.23777344 173.5859375 48.26367188 C181.81348482 48.52136797 181.81348482 48.52136797 189 45 C189.96608891 42.46717712 189.96608891 42.46717712 190.0625 39.625 C190.58774862 35.60870501 190.81710768 34.23583483 193.375 30.9375 C200.12744269 25.95355421 206.88474501 26.20083276 215 27 C220.13171125 28.52317034 224.42905634 30.68039906 227.5625 35.125 C232.77273135 45.54546269 230.14524037 59.26838586 227 70 C225.44070374 74.4561222 223.7841696 77.27053991 220.3125 80.5 C216.01850804 82.44444919 212.63940661 82.8270589 208 82 C205.86190425 81.0614188 203.87563419 79.97288015 201.83984375 78.83203125 C198.95474077 77.52730315 196.95999153 78.09913301 194 79 C192.80310547 79.51046875 192.80310547 79.51046875 191.58203125 80.03125 C186.3292693 81.45184429 181.23046214 81.36860712 175.8125 81.375 C174.73935547 81.39949219 173.66621094 81.42398438 172.56054688 81.44921875 C161.08991007 81.49085446 152.77963023 78.21255664 144 71 C141.48810859 68.97091992 141.48810859 68.97091992 139 68 C135.17041473 68.62101383 133.13686123 70.78718262 130.4375 73.375 C121.69870217 81.18511397 110.77815433 81.62234066 99.5625 81.4375 C98.32306641 81.44458984 97.08363281 81.45167969 95.80664062 81.45898438 C85.47817926 81.38644521 85.47817926 81.38644521 81 78 C81 77.34 81 76.68 81 76 C80.5359375 76.3609375 80.071875 76.721875 79.59375 77.09375 C72.22461538 82.04316877 64.52653639 82.142184 56 81 C53.48877126 79.96682976 51.66714419 78.90459722 49.578125 77.19140625 C47.6742623 75.75408416 46.38401721 75.18771789 44 75 C42.41541842 76.21182536 42.41541842 76.21182536 41 77.9375 C37.79087878 80.8786218 35.53096012 81.53138077 31.1875 81.6875 C24.24631209 81.30525686 18.07027384 79.26596163 13.22265625 74.109375 C12.24045726 72.87975184 11.26219907 71.6469639 10.2890625 70.41015625 C9.0084761 68.78900273 9.0084761 68.78900273 6.5625 68.125 C3.05655149 69.32215315 1.26141639 71.49778933 -1.23046875 74.1796875 C-6.34502932 79.44102354 -11.40465068 81.16290634 -18.6875 81.3125 C-26.32178561 81.21834643 -30.67262787 80.18477047 -36.1875 74.90625 C-42.70023954 67.92831477 -44.52738577 62.85531818 -44.38671875 53.30078125 C-43.66893627 47.17425406 -40.64440345 43.15827953 -37 38.375 C-35 37 -35 37 -32.59765625 37.13671875 C-29.29598438 38.23396609 -28.39363059 39.60088371 -26.4375 42.4375 C-24.22912819 45.61490332 -22.72317813 47.73166459 -19 49 C-16.28192846 49.27803692 -16.28192846 49.27803692 -13.4375 49.1875 C-12.48746094 49.18105469 -11.53742187 49.17460938 -10.55859375 49.16796875 C-7.8795058 49.10061434 -7.8795058 49.10061434 -5 48 C-5.55915773 43.56291897 -6.68374472 40.14535337 -8.6875 36.15625 C-9.22117187 35.07472656 -9.75484375 33.99320313 -10.3046875 32.87890625 C-10.86414063 31.76386719 -11.42359375 30.64882812 -12 29.5 C-13.11140724 27.28486806 -14.2158354 25.06621763 -15.3125 22.84375 C-15.80363281 21.86599609 -16.29476562 20.88824219 -16.80078125 19.88085938 C-18.41842318 15.9948303 -19.3494633 12.59199948 -18.4375 8.4375 C-14.21526 1.27804957 -7.9862015 -1.10619683 0 0 Z M56 44 C54.82221688 46.30371421 54.82221688 46.30371421 55 49 C57.18966635 53.80042238 59.36974508 57.22184705 64 60 C66.22286468 60.25695267 66.22286468 60.25695267 68 59 C70.62341119 54.8025421 70.69357068 49.79430732 70 45 C68.58329289 41.85150394 68.58329289 41.85150394 66 40 C61.15269352 39.09113003 58.88961326 40.04015961 56 44 Z M207.125 46 C205.31024405 50.8393492 205.37060318 55.02788996 206.9375 59.9375 C207.8345163 61.93610821 207.8345163 61.93610821 209 63 C213.06050944 63.44088492 213.06050944 63.44088492 216.63671875 61.8203125 C219.37895369 58.15876098 219.20690299 53.42901715 219 49 C217.68944108 45.71095979 217.68944108 45.71095979 215 44 C211.24309264 43.23328421 209.79112805 43.15613008 207.125 46 Z " fill="#000000" transform="translate(531,53)"/>
<path d="M0 0 C6.13793917 5.64026842 8.14304941 14.38565123 10.75 22.0625 C14.94240948 35.85429307 14.94240948 35.85429307 24.3125 46.125 C32.31916857 49.10183832 43.59132066 47.19902304 52.0625 46.75 C53.37734375 46.68039063 54.6921875 46.61078125 56.046875 46.5390625 C59.45216575 46.35373563 59.45216575 46.35373563 62.3125 44.125 C56.01402268 40.37013852 51.83663399 38.49798883 44.3125 39.125 C42.26336422 40.03780748 42.26336422 40.03780748 40.25 41.1875 C37.34025534 42.78079708 36.40028146 43.12662558 32.9375 43.0625 C30.3125 42.125 30.3125 42.125 28.3125 39.125 C28.18648784 33.70647726 30.77376963 30.95580052 34.2890625 27.2109375 C34.95679688 26.52257812 35.62453125 25.83421875 36.3125 25.125 C36.95960938 24.41601562 37.60671875 23.70703125 38.2734375 22.9765625 C43.5677925 17.34738663 48.28144526 13.88951038 55.9375 12.4375 C66.06742711 13.03221196 75.92689238 21.16781311 83.79296875 26.8515625 C88.41973743 30.00072849 93.53017885 32.19906084 98.6652832 34.38647461 C105.46328194 37.35678207 105.46328194 37.35678207 107.3125 41.125 C108.12955755 46.06414967 108.06280708 50.62438583 105.8125 55.125 C100.51189773 59.36548181 94.90637883 60.21006981 88.375 61.3125 C77.85432064 63.30996497 68.87277218 68.23924773 59.44140625 73.1328125 C47.04492073 79.54314367 34.45640251 82.56707572 20.49609375 79.5078125 C15.25652721 77.44843504 11.85463063 73.97347775 8.234375 69.734375 C6.39858164 67.93034997 6.39858164 67.93034997 3.81640625 67.65625 C0.58252618 68.26165657 -0.36359945 69.41026842 -2.5 71.875 C-8.50548803 78.15903572 -12.89078179 80.32489874 -21.6875 80.625 C-30.09893048 80.33773663 -34.77737636 78.42692153 -40.5 72.3125 C-45.25527391 66.41726316 -47.24370501 61.17063784 -46.96875 53.609375 C-46.13030014 46.20306793 -42.78137915 41.40021465 -37.6875 36.125 C-34.48953247 36.43713039 -33.06193716 36.71962417 -30.84375 39.12109375 C-30.2971875 39.92675781 -29.750625 40.73242188 -29.1875 41.5625 C-26.69227845 45.22882789 -25.01230808 46.93327511 -20.6875 48.125 C-17.85980984 48.40137328 -17.85980984 48.40137328 -15 48.3125 C-14.04738281 48.30605469 -13.09476562 48.29960938 -12.11328125 48.29296875 C-9.67819221 48.28049623 -9.67819221 48.28049623 -7.6875 47.125 C-8.18553127 41.40135708 -9.81056701 37.28904592 -12.5 32.25 C-13.22623405 30.83643729 -13.95150271 29.42237817 -14.67578125 28.0078125 C-15.34600124 26.71335887 -16.01653891 25.41906964 -16.6875 24.125 C-19.72176563 18.22364591 -21.67732639 13.83382333 -20.6875 7.125 C-18.91288066 3.84486342 -16.5949921 1.6645899 -13.375 -0.25 C-8.70447944 -1.33616757 -4.58746881 -1.4935945 0 0 Z " fill="#000000" transform="translate(376.6875,53.875)"/>
<path d="M0 0 C3.30616844 2.64341117 4.80816665 5.34057285 6 9.4375 C6 13.87062854 5.09569295 16.11908712 3 20 C0.41128177 21.29435911 -1.41063324 21.08097298 -4.3046875 21.02734375 C-5.36300781 21.01509766 -6.42132813 21.00285156 -7.51171875 20.99023438 C-9.74616053 20.95519957 -11.98054333 20.91616495 -14.21484375 20.87304688 C-15.27574219 20.86208984 -16.33664063 20.85113281 -17.4296875 20.83984375 C-18.88737549 20.81458618 -18.88737549 20.81458618 -20.37451172 20.78881836 C-23.08216072 21.00660861 -24.68966804 21.61537155 -27 23 C-27 24.32 -27 25.64 -27 27 C-21.92010733 29.42426561 -16.85068927 29.6646808 -11.32617188 30.12304688 C-6.63854073 30.58555981 -3.07659912 31.44286055 1 34 C6.14365145 42.3362627 6.10770448 52.46716017 4.50390625 61.92578125 C2.12219159 70.57799893 -2.34329509 78.0986012 -10 83 C-26.01975208 90.87159133 -45.93750026 91.58019295 -63.1875 87.03515625 C-70.94336269 84.1805679 -77.07879403 79.3552318 -81 72 C-83.76434291 65.53742575 -84.51789044 59.61386426 -84.4375 52.625 C-84.42992676 51.70251465 -84.42235352 50.7800293 -84.41455078 49.82958984 C-84.18870507 40.48749004 -82.32673851 32.15914106 -75.70703125 25.1875 C-72.35313815 22.85435697 -69.97447808 23.30604351 -66 24 C-62.33872174 25.94748844 -61.2783378 27.22683945 -59.875 31.125 C-60.02778275 35.86126522 -61.66797093 38.48154694 -63.90625 42.56640625 C-65.47689494 46.06109123 -65.17266969 48.40869909 -64 52 C-61.42115894 56.01153054 -56.12502663 57.47276971 -51.68066406 58.57543945 C-46.09317186 59.46038016 -40.3939692 59.18470319 -34.75 59.1875 C-32.82220703 59.20586914 -32.82220703 59.20586914 -30.85546875 59.22460938 C-18.92762168 59.59420321 -18.92762168 59.59420321 -8.4375 54.875 C-7.963125 54.25625 -7.48875 53.6375 -7 53 C-12.74173769 51.63732954 -18.28884129 50.86531884 -24.1875 50.5625 C-33.72472733 49.91082395 -33.72472733 49.91082395 -38 47 C-43.9180856 38.67429427 -44.72098922 31.051438 -44 21 C-42.18123329 11.51291959 -36.731595 4.00383983 -28.8359375 -1.51171875 C-19.68561559 -6.25324919 -8.72420947 -5.16102501 0 0 Z " fill="#000000" transform="translate(122,81)"/>
<path d="M0 0 C11.58340993 5.19058896 20.54593322 16.7265421 25.32421875 28.171875 C28.93728013 38.77018839 29.76095578 49.61246012 25 60 C21.21293124 66.21467694 15.11852057 70.5181122 8.12792969 72.54199219 C-1.21561917 74.55306351 -12.95909808 74.51391058 -21.18359375 69.421875 C-25.60401336 65.96158954 -27.80706701 62.46760955 -29 57 C-29.54995217 50.07253237 -29.71538926 44.02149294 -26 38 C-23.2211739 35.59669094 -21.64951414 35.05412618 -18 34.75 C-13.87052516 36.47061452 -13.047561 38.99270018 -11.2734375 42.96875 C-10.18744959 45.14458196 -10.18744959 45.14458196 -8.07421875 45.76953125 C-0.76932297 46.58118634 5.8504162 45.47197314 13 44 C11.52105949 40.22787663 9.57089328 38.74573933 6.203125 36.57421875 C5.2440625 35.94193359 4.285 35.30964844 3.296875 34.65820312 C1.28198505 33.35498264 -0.73362857 32.05288026 -2.75 30.75195312 C-8.89528912 26.69754112 -14.61402853 22.77194294 -18 16 C-18.39771327 11.22744077 -18.47453429 8.91517328 -16.25 4.625 C-11.76920783 -0.60259087 -6.59045391 -1.08708518 0 0 Z " fill="#000000" transform="translate(166,61)"/>
<path d="M0 0 C12.34924095 5.54159216 20.81522158 17.48372451 26.09765625 29.49609375 C29.21488265 38.32581875 29.59812424 49.19857374 26.1015625 57.97265625 C22.38440946 64.81379961 17.29978432 69.335955 10 72 C0.89392622 74.57286116 -11.52044585 74.46146374 -20.08203125 70.26171875 C-24.2770102 67.50208902 -26.38022539 64.5051669 -28.3125 59.8125 C-29.70260705 52.10372453 -30.14606857 44.86245833 -26 38 C-23.03669977 35.43714575 -21.7365504 34.95667351 -17.8125 35.1875 C-15 36 -15 36 -13 38 C-12.54625 39.175625 -12.0925 40.35125 -11.625 41.5625 C-10.45155565 45.07152466 -10.45155565 45.07152466 -8.15625 45.703125 C-0.86294989 46.70727501 5.87870823 45.66510371 13 44 C10.52686095 38.46342533 6.12826967 36.11217146 1.1875 33 C-15.62502636 22.25525485 -15.62502636 22.25525485 -18 15 C-18.49024827 10.86893739 -18.06635635 7.57691485 -15.7109375 4.09375 C-11.12453211 -0.51439191 -6.26192055 -1.41398206 0 0 Z " fill="#000000" transform="translate(265,61)"/>
<path d="M0 0 C2.78491464 2.29345912 3.95643516 4.3121755 4.37896729 7.91629028 C4.38055847 8.69946625 4.38214966 9.48264221 4.38378906 10.28955078 C4.39308693 11.63606468 4.39308693 11.63606468 4.40257263 13.00978088 C4.39862991 13.97850632 4.39468719 14.94723175 4.390625 15.9453125 C4.39349014 16.95766464 4.39635529 17.97001678 4.39930725 19.01304626 C4.40368872 22.30051088 4.39113193 25.58757562 4.375 28.875 C4.36984879 30.54536819 4.36984879 30.54536819 4.36459351 32.2494812 C4.15957361 88.54855399 4.15957361 88.54855399 -5.34765625 99.6328125 C-7.875 101.75 -7.875 101.75 -11 102.3125 C-13.875 101.75 -13.875 101.75 -15.51123047 100.10766602 C-17.24071613 97.11775498 -17.37967994 94.90892215 -17.5703125 91.46484375 C-17.64588379 90.2221875 -17.72145508 88.97953125 -17.79931641 87.69921875 C-17.86669579 86.36200351 -17.93357938 85.02476321 -18 83.6875 C-18.07753043 82.30983447 -18.156151 80.93222987 -18.23583984 79.5546875 C-18.39108026 76.8361135 -18.53865095 74.1172959 -18.6796875 71.39794922 C-18.83687233 68.46212949 -19.015524 65.53052197 -19.21875 62.59765625 C-19.82682616 53.50946374 -19.99778819 44.41861363 -20.05023193 35.31152344 C-20.06211269 33.37561044 -20.08194777 31.43975133 -20.10205078 29.50390625 C-20.12159536 8.41810091 -20.12159536 8.41810091 -14.875 0.75 C-10.68085534 -2.6674512 -4.67644422 -2.03323662 0 0 Z " fill="#000000" transform="translate(321.875,32.25)"/>
<path d="M0 0 C3.13995526 1.26934362 4.50519579 2.08583161 6.11450195 5.05908203 C7.31473555 9.04530037 7.26647178 12.72696639 7.23046875 16.8671875 C7.23050903 17.7305925 7.23054932 18.5939975 7.23059082 19.48356628 C7.22720587 22.28086812 7.20835943 25.07777772 7.1875 27.875 C7.17863968 29.79744396 7.16993235 31.71988864 7.16137695 33.64233398 C6.84668198 89.57691459 6.84668198 89.57691459 -3.46875 101.73046875 C-5 103 -5 103 -8 103.4375 C-11 103 -11 103 -12.8125 101.4375 C-15.43074709 96.06320333 -15.22383314 89.65606777 -15.53515625 83.76171875 C-15.57831467 82.97538559 -15.62147308 82.18905243 -15.66593933 81.37889099 C-15.80355771 78.81534288 -15.93426555 76.25153405 -16.0625 73.6875 C-16.10669067 72.8093866 -16.15088135 71.93127319 -16.19641113 71.02655029 C-16.81888599 58.39294482 -17.21291427 45.77407293 -17.25 33.125 C-17.25508575 32.42474701 -17.26017151 31.72449402 -17.26541138 31.00302124 C-17.38574492 10.61719187 -17.38574492 10.61719187 -12 2 C-7.95048409 -0.69967727 -4.75094185 -0.53437659 0 0 Z " fill="#000000" transform="translate(220,31)"/>
<path d="M0 0 C2.79328637 2.60706728 3.8233827 5.20272813 4 9 C2.02768166 15.12456747 2.02768166 15.12456747 -0.6875 17.4375 C-4.20133117 18.29221569 -7.42206682 18.69652388 -11 18 C-13.63683762 15.8905299 -14.7081633 14.37858099 -15.41015625 11.0625 C-15.71427469 6.94520425 -15.31378364 5.39859003 -12.6875 2.0625 C-8.24419529 -1.34747804 -5.35928287 -1.24411924 0 0 Z " fill="#000000" transform="translate(441,38)"/>
</svg>
